<?xml version="1.0" encoding="utf-8"?>
<!-- Generator: Adobe Illustrator 26.0.2, SVG Export Plug-In . SVG Version: 6.00 Build 0)  -->
<svg version="1.1" id="Layer_1" xmlns="http://www.w3.org/2000/svg" xmlns:xlink="http://www.w3.org/1999/xlink" x="0px" y="0px"
	 viewBox="0 0 173 129.1" style="enable-background:new 0 0 173 129.1;" xml:space="preserve">
<style type="text/css">
	.st0{clip-path:url(#SVGID_00000138532996724220716600000012562534392788897203_);}
	.st1{fill:#FF0001;}
	.st2{fill:#FFFFFF;}
	.st3{clip-path:url(#SVGID_00000079456035025212116190000016569461870784588726_);}
	.st4{clip-path:url(#SVGID_00000150062264983449097280000014352707437608237480_);}
	.st5{clip-path:url(#SVGID_00000183934933126248505560000002756480097781824411_);}
	.st6{clip-path:url(#SVGID_00000155848313851357249940000007889194248121016233_);}
	.st7{clip-path:url(#SVGID_00000129191317411760416610000005886911145261787801_);}
	.st8{opacity:0.9;}
	.st9{fill:url(#SVGID_00000119116649847255657740000007043760379931643065_);}
	.st10{fill:url(#SVGID_00000098200118703477482870000011374223444646546852_);}
	.st11{fill:url(#SVGID_00000043416754474343357470000018136034214155208887_);}
	.st12{fill:url(#SVGID_00000013883020682812628490000011019207065141704346_);}
	.st13{fill:url(#SVGID_00000030470226576512071090000000526531973982132901_);}
	.st14{fill:url(#SVGID_00000157296764024321095700000013016205773579085738_);}
	.st15{fill:url(#SVGID_00000151531826018428534770000007182166228774793092_);}
	.st16{fill:url(#SVGID_00000015312770472026275650000009795429371509835654_);}
	.st17{fill:url(#SVGID_00000067949182402963358190000006365883644581161357_);}
	.st18{fill:url(#SVGID_00000182519042716743960710000008392067731513340320_);}
	.st19{fill:url(#SVGID_00000176043763752656600400000009082305343645627278_);}
	.st20{fill:url(#SVGID_00000168829260930018138520000017267310787757997711_);}
	.st21{fill:url(#SVGID_00000028285057799690296450000016339113641683678399_);}
	.st22{fill:url(#SVGID_00000120544184769045254750000001207430243848057754_);}
	.st23{fill:url(#SVGID_00000181072443746335363300000007976908483384513667_);}
	.st24{fill:url(#SVGID_00000170269377804105838420000000976512390545874579_);}
	.st25{fill:url(#SVGID_00000105423331906558996770000000929847761915914396_);}
	.st26{fill:url(#SVGID_00000154411973396652961410000009381668531602083763_);}
	.st27{fill:url(#SVGID_00000009553499277436884590000004635253677601313946_);}
	.st28{fill:url(#SVGID_00000129190812396256469290000011768877275240066951_);}
	.st29{fill:url(#SVGID_00000168830668112152075860000006445389562006188702_);}
	.st30{fill:url(#SVGID_00000078750197658129826080000009246893155677569190_);}
	.st31{fill:url(#SVGID_00000152242259548932412720000015489800448333440697_);}
	.st32{fill:url(#SVGID_00000040557051676484245280000015198880301245347459_);}
	.st33{fill:url(#SVGID_00000127006052594789168410000002980820632357654203_);}
	.st34{fill:url(#SVGID_00000127743928804201255150000010837593930164498097_);}
	.st35{fill:url(#SVGID_00000081626132995984938120000011230335160433181859_);}
	.st36{fill:url(#SVGID_00000022525470186152430330000009174107703751573426_);}
	.st37{fill:url(#SVGID_00000088821654212714515350000005114172776184406418_);}
	.st38{fill:url(#SVGID_00000031899596535497923040000008899026879117931138_);}
	.st39{fill:url(#SVGID_00000107584100736437793060000009974144878730930353_);}
	.st40{fill:url(#SVGID_00000157267905660589569620000017025092754121686707_);}
	.st41{fill:url(#SVGID_00000142876579706448985520000000861291297927963569_);}
	.st42{fill:url(#SVGID_00000075878636222798133790000015829504293772365492_);}
	.st43{fill:url(#SVGID_00000004548538145035198890000016141215703888304306_);}
	.st44{fill:url(#SVGID_00000145781159556075988830000016413574926257997214_);}
	.st45{fill:url(#SVGID_00000096032847096696967310000006476331600302940054_);}
	.st46{fill:#2B96CE;}
	.st47{opacity:0.2;fill:#5488F5;}
	.st48{fill:#7DB7F5;}
	.st49{opacity:0.4;fill:#5488F5;}
	.st50{opacity:0.25;fill:#5488F5;}
	.st51{opacity:0.3;fill:#5488F5;}
	.st52{opacity:0.22;fill:#5488F5;}
	.st53{opacity:0.5;fill:#5488F5;}
	.st54{opacity:0.6;fill:#5488F5;}
	.st55{opacity:0.1;fill:#5488F5;}
	.st56{opacity:0.33;fill:#5488F5;}
	.st57{opacity:0.7;fill:#5488F5;}
	.st58{fill:#BBDCF5;}
	.st59{opacity:0.77;fill:#7DB7F5;}
	.st60{opacity:0.66;fill:#7DB7F5;}
	
		.st61{clip-path:url(#SVGID_00000154409256777937229530000003946797605059855777_);fill:url(#SVGID_00000013884124426612363970000011043114076462567584_);}
	
		.st62{clip-path:url(#SVGID_00000154409256777937229530000003946797605059855777_);fill:url(#SVGID_00000150095733225726514070000008491331818756445876_);}
	
		.st63{clip-path:url(#SVGID_00000154409256777937229530000003946797605059855777_);fill:url(#SVGID_00000062172461051182374230000011227989589484123325_);}
	
		.st64{clip-path:url(#SVGID_00000154409256777937229530000003946797605059855777_);fill:url(#SVGID_00000009590223415972564300000005918517906187002809_);}
	
		.st65{clip-path:url(#SVGID_00000154409256777937229530000003946797605059855777_);fill:url(#SVGID_00000163789678655819042680000014380794876110344595_);}
	
		.st66{clip-path:url(#SVGID_00000154409256777937229530000003946797605059855777_);fill:url(#SVGID_00000124150612637434814890000013439514913354258085_);}
	
		.st67{clip-path:url(#SVGID_00000154409256777937229530000003946797605059855777_);fill:url(#SVGID_00000034050547386456042030000013267410421534066590_);}
	
		.st68{clip-path:url(#SVGID_00000154409256777937229530000003946797605059855777_);fill:url(#SVGID_00000040541309551934556540000005484633085435233196_);}
	
		.st69{clip-path:url(#SVGID_00000154409256777937229530000003946797605059855777_);fill:url(#SVGID_00000147914886668754339990000001743297168686262656_);}
	
		.st70{clip-path:url(#SVGID_00000154409256777937229530000003946797605059855777_);fill:url(#SVGID_00000139992563743898397070000006030920507419081623_);}
	
		.st71{clip-path:url(#SVGID_00000154409256777937229530000003946797605059855777_);fill:url(#SVGID_00000136374634330781595250000015116645418732667316_);}
	
		.st72{clip-path:url(#SVGID_00000154409256777937229530000003946797605059855777_);fill:url(#SVGID_00000136401524085407222140000016027185322942197385_);}
	
		.st73{clip-path:url(#SVGID_00000154409256777937229530000003946797605059855777_);fill:url(#SVGID_00000037673143593244643270000017604459692443606949_);}
	
		.st74{clip-path:url(#SVGID_00000154409256777937229530000003946797605059855777_);fill:url(#SVGID_00000005950326824684811370000003598519669019056533_);}
	
		.st75{clip-path:url(#SVGID_00000154409256777937229530000003946797605059855777_);fill:url(#SVGID_00000007391098902307432940000008045962495578803603_);}
	
		.st76{clip-path:url(#SVGID_00000154409256777937229530000003946797605059855777_);fill:url(#SVGID_00000110437360818838325710000013425187362552334783_);}
	
		.st77{clip-path:url(#SVGID_00000154409256777937229530000003946797605059855777_);fill:url(#SVGID_00000047768974778374625970000007148176667838298535_);}
	
		.st78{clip-path:url(#SVGID_00000154409256777937229530000003946797605059855777_);fill:url(#SVGID_00000168838806203802027860000012860748666186265229_);}
	
		.st79{clip-path:url(#SVGID_00000154409256777937229530000003946797605059855777_);fill:url(#SVGID_00000119091694303753225430000001148752218195117952_);}
	
		.st80{clip-path:url(#SVGID_00000154409256777937229530000003946797605059855777_);fill:url(#SVGID_00000176749407691840869280000004013252564146342304_);}
	
		.st81{clip-path:url(#SVGID_00000154409256777937229530000003946797605059855777_);fill:url(#SVGID_00000152225263176182268890000000142657509692327870_);}
	
		.st82{clip-path:url(#SVGID_00000154409256777937229530000003946797605059855777_);fill:url(#SVGID_00000011749998322441981560000001856341004045734330_);}
	
		.st83{clip-path:url(#SVGID_00000154409256777937229530000003946797605059855777_);fill:url(#SVGID_00000164479338187847775470000004272665851383842994_);}
	
		.st84{clip-path:url(#SVGID_00000154409256777937229530000003946797605059855777_);fill:url(#SVGID_00000090290561671736004390000000456788115732978060_);}
	
		.st85{clip-path:url(#SVGID_00000154409256777937229530000003946797605059855777_);fill:url(#SVGID_00000173150687682036008430000004443773434666954665_);}
	
		.st86{clip-path:url(#SVGID_00000154409256777937229530000003946797605059855777_);fill:url(#SVGID_00000111904691456241210380000002295313610098551960_);}
	
		.st87{clip-path:url(#SVGID_00000154409256777937229530000003946797605059855777_);fill:url(#SVGID_00000057835325349352073910000015625496787727311748_);}
	
		.st88{clip-path:url(#SVGID_00000154409256777937229530000003946797605059855777_);fill:url(#SVGID_00000000210855114257686400000014317355751862590111_);}
	
		.st89{clip-path:url(#SVGID_00000154409256777937229530000003946797605059855777_);fill:url(#SVGID_00000119110043154218229130000010186315521345530794_);}
	
		.st90{clip-path:url(#SVGID_00000154409256777937229530000003946797605059855777_);fill:url(#SVGID_00000065778495870128084040000010800887653371942291_);}
	
		.st91{clip-path:url(#SVGID_00000154409256777937229530000003946797605059855777_);fill:url(#SVGID_00000016763720082682765280000009075144360505934767_);}
	
		.st92{clip-path:url(#SVGID_00000154409256777937229530000003946797605059855777_);fill:url(#SVGID_00000120533721895499347160000009548204268213326264_);}
	
		.st93{clip-path:url(#SVGID_00000154409256777937229530000003946797605059855777_);fill:url(#SVGID_00000106866482901265906220000001361393223314114489_);}
	
		.st94{clip-path:url(#SVGID_00000154409256777937229530000003946797605059855777_);fill:url(#SVGID_00000106842402056951412840000017228066770505522357_);}
	
		.st95{clip-path:url(#SVGID_00000154409256777937229530000003946797605059855777_);fill:url(#SVGID_00000052066590857421661550000006282856678594269317_);}
	
		.st96{clip-path:url(#SVGID_00000154409256777937229530000003946797605059855777_);fill:url(#SVGID_00000112606021796173702380000017093409443950824379_);}
	
		.st97{clip-path:url(#SVGID_00000154409256777937229530000003946797605059855777_);fill:url(#SVGID_00000041275701447865331140000002701573078191208344_);}
	.st98{fill:url(#SVGID_00000109019407676177950740000012005054812019263903_);}
	.st99{fill:url(#SVGID_00000003821653648878983650000007668148604864476571_);}
	.st100{fill:url(#SVGID_00000096780225030427146790000004227754772756803756_);}
	.st101{fill:url(#SVGID_00000030452025461377244880000009811764733813567919_);}
	.st102{fill:url(#SVGID_00000083798224799305870540000016053770765785965449_);}
	.st103{fill:url(#SVGID_00000093139667328312585260000008639160274795491722_);}
	.st104{fill:url(#SVGID_00000040557624565615902170000002714904263180010667_);}
	.st105{fill:url(#SVGID_00000157997575481382618990000000011342536900407189_);}
	.st106{fill:url(#SVGID_00000082362992085100294580000013748936857465199248_);}
	.st107{fill:url(#SVGID_00000024004065442723759530000008110194162434340491_);}
	.st108{fill:url(#SVGID_00000106856137247367355070000013587798677872725152_);}
	.st109{fill:url(#SVGID_00000101804917746915392670000004450290514673285250_);}
	.st110{fill:url(#SVGID_00000161597183750666167590000004441575272145132979_);}
	.st111{fill:url(#SVGID_00000130609675573505962120000017599238394367053466_);}
	.st112{fill:url(#SVGID_00000178198122111762443360000009950851740904939958_);}
	.st113{fill:url(#SVGID_00000070097928649182928340000002687525405804070034_);}
	.st114{fill:url(#SVGID_00000004508435474859733150000002417260288997288860_);}
	.st115{fill:url(#SVGID_00000043417902071927288430000018413198538966277767_);}
	.st116{fill:url(#SVGID_00000020357386568376646620000018235412148832970428_);}
	.st117{fill:url(#SVGID_00000171707268880503537520000011062971155293727886_);}
	.st118{fill:url(#SVGID_00000013172571990451256110000005019924986405360528_);}
	.st119{fill:url(#SVGID_00000183956462835487642530000008337587336762356367_);}
	.st120{fill:url(#SVGID_00000031186685727729060720000004241604763291594120_);}
	.st121{fill:url(#SVGID_00000029040474898331852900000011441994502541891503_);}
	.st122{fill:url(#SVGID_00000105395086090676788040000006709735183444522894_);}
	.st123{fill:url(#SVGID_00000027575132366401150740000008936456421191245462_);}
	.st124{fill:url(#SVGID_00000012449314751218408940000009748676705954886305_);}
	.st125{fill:url(#SVGID_00000040552287922855442100000004648318827310911880_);}
	.st126{fill:url(#SVGID_00000049926406698640616390000011598874868536596659_);}
	.st127{fill:url(#SVGID_00000028321089727969467620000010957431113248036785_);}
	.st128{fill:url(#SVGID_00000126296219891597471380000005104633780810410654_);}
	.st129{fill:url(#SVGID_00000177473219314976389360000008788501631567239558_);}
	.st130{fill:url(#SVGID_00000068645867157991009500000017577873475894519966_);}
	.st131{fill:url(#SVGID_00000052795605747996004830000006494889934625882019_);}
	.st132{fill:url(#SVGID_00000087373539356916205550000012335116650026735248_);}
	.st133{fill:url(#SVGID_00000078002864285030044440000009699374116447252886_);}
	.st134{fill:url(#SVGID_00000121243964673240032410000003213178275362899122_);}
	.st135{fill:none;}
	.st136{fill:url(#SVGID_00000150814596319684377290000004417862907097492644_);}
	.st137{fill:url(#SVGID_00000117634430563103658010000016503898573114223498_);}
	.st138{opacity:0.41;fill:url(#SVGID_00000017515920343637163210000016615714881569262220_);}
</style>
<g>
	<g>
		<defs>
			
				<rect id="SVGID_00000028289257958255412910000000692754674801054378_" x="-2490.5" y="-2404.7" transform="matrix(0.9343 -0.3566 0.3566 0.9343 432.6254 -269.1719)" width="3953.3" height="2193.3"/>
		</defs>
		<clipPath id="SVGID_00000036938199073505319240000008492678566384077471_">
			<use xlink:href="#SVGID_00000028289257958255412910000000692754674801054378_"  style="overflow:visible;"/>
		</clipPath>
	</g>
</g>
<g>
	<g>
		<path class="st1" d="M77.1,0L7.7,26.2c-4.3,1.6-7.7,7-7.7,12v19.7l69.4-26.2c4.3-1.6,7.7-7,7.7-12c0,0,0,0,0,0V0z"/>
		<path class="st1" d="M7.7,90.4c-4.3,1.6-7.7,7-7.7,12V122l23.1-8.7c4.3-1.6,7.7-7,7.7-12l0,0l0-19.7L7.7,90.4z"/>
		<path class="st1" d="M0,70.3V90l52.4-19.8c4.3-1.6,7.7-7,7.7-12v0V38.5L7.7,58.3C3.4,59.9,0,65.3,0,70.3"/>
	</g>
	<polygon class="st2" points="41.2,81.7 41.2,89.5 49.6,89.5 49.6,90.7 41.2,90.7 41.2,99.2 39.7,99.2 39.7,80.5 51.1,80.5 
		51.1,81.7 	"/>
	<g>
		<path class="st2" d="M60.9,99.2v-1.5c-0.9,1.1-2.2,1.7-3.7,1.7c-1.4,0-2.6-0.4-3.4-1.2c-0.8-0.8-1.3-2-1.3-3.5v-8.1h1.3v7.9
			c0,2.5,1.2,3.8,3.5,3.8c2.3,0,3.6-1.4,3.6-3.8v-7.9h1.3v12.7H60.9z"/>
		<path class="st2" d="M74,99.2v-7.9c0-2.4-1.2-3.8-3.5-3.8s-3.6,1.4-3.6,3.8v7.9h-1.3V86.5h1.3V88c0.9-1.1,2.2-1.7,3.7-1.7
			c1.4,0,2.6,0.4,3.4,1.2c0.8,0.8,1.3,2,1.3,3.5v8.1H74z"/>
		<path class="st2" d="M82.9,87.6c-3.1,0-3.6,2.7-3.6,5.3c0,2.6,0.5,5.3,3.6,5.3c3.1,0,3.6-2.7,3.6-5.3C86.5,90.2,86,87.6,82.9,87.6
			 M86.5,99.2v-1.6c-1.1,1.5-2.3,1.8-3.8,1.8c-1.3,0-2.4-0.4-3.1-1.1C78.3,97,78,94.9,78,92.9c0-2,0.3-4.1,1.6-5.4
			c0.7-0.7,1.8-1.1,3.1-1.1c1.4,0,2.7,0.3,3.8,1.8v-7.7h1.3v18.8H86.5z"/>
		<path class="st2" d="M98.7,93.2h-4c-2.2,0-3.2,0.9-3.2,2.6c0,1.7,1,2.5,3.3,2.5c1.2,0,2.3-0.1,3.2-1c0.5-0.4,0.7-1.2,0.7-2.4V93.2
			z M98.7,99.2V98c-1.1,1.1-2.1,1.4-3.9,1.4c-1.9,0-2.9-0.3-3.7-1.2c-0.6-0.6-0.9-1.5-0.9-2.5c0-2.3,1.7-3.7,4.4-3.7h4.1v-1.4
			c0-2-1-3.1-3.6-3.1c-1.8,0-2.7,0.4-3.5,1.6l-1-0.8c1.1-1.5,2.4-1.9,4.5-1.9c3.3,0,4.9,1.5,4.9,4.2v8.7H98.7z"/>
		<path class="st2" d="M120.2,99.2v-7.9c0-2.4-1.2-3.8-3.5-3.8c-2.2,0-3.6,1.4-3.6,3.6v8.1h-1.3v-7.9c0-2.4-1.2-3.8-3.5-3.8
			c-2.3,0-3.6,1.4-3.6,3.8v7.9h-1.3V86.5h1.3V88c0.9-1.1,2.2-1.7,3.8-1.7c1.9,0,3.3,0.8,4.1,2.3c0.9-1.5,2.5-2.3,4.3-2.3
			c1.4,0,2.6,0.4,3.3,1.2c0.8,0.8,1.3,2,1.3,3.5v8.1H120.2z"/>
		<path class="st2" d="M132.5,89.7c-0.6-1.3-1.8-2.1-3.3-2.1c-1.4,0-2.7,0.8-3.3,2.1c-0.3,0.8-0.4,1.2-0.4,2.4h7.5
			C132.9,90.9,132.8,90.5,132.5,89.7 M125.5,93.2c0,3.2,1.4,5,4.1,5c1.5,0,2.4-0.4,3.5-1.5l1,0.8c-1.3,1.3-2.5,1.9-4.6,1.9
			c-3.5,0-5.4-2.3-5.4-6.5c0-4.1,1.9-6.5,5.1-6.5c3.2,0,5.1,2.3,5.1,6.2v0.6H125.5z"/>
		<path class="st2" d="M145.4,99.2v-7.9c0-2.4-1.2-3.8-3.5-3.8c-2.3,0-3.6,1.4-3.6,3.8v7.9h-1.3V86.5h1.3V88
			c0.9-1.1,2.2-1.7,3.7-1.7c1.4,0,2.6,0.4,3.4,1.2c0.8,0.8,1.3,2,1.3,3.5v8.1H145.4z"/>
		<path class="st2" d="M153.1,99.2c-2,0-3.1-1.4-3.1-3.3v-8.4h-1.7v-1h1.7v-4.1h1.3v4.1h2.9v1h-2.9v8.4c0,1.3,0.6,2.1,1.9,2.1h0.9
			v1.2H153.1z"/>
		<path class="st2" d="M164.3,93.2h-4c-2.2,0-3.2,0.9-3.2,2.6c0,1.7,1,2.5,3.3,2.5c1.2,0,2.3-0.1,3.2-1c0.5-0.4,0.7-1.2,0.7-2.4
			V93.2z M164.3,99.2V98c-1.1,1.1-2.1,1.4-3.9,1.4c-1.9,0-2.9-0.3-3.7-1.2c-0.6-0.6-0.9-1.5-0.9-2.5c0-2.3,1.7-3.7,4.4-3.7h4.1v-1.4
			c0-2-1-3.1-3.6-3.1c-1.8,0-2.7,0.4-3.5,1.6l-1-0.8c1.1-1.5,2.4-1.9,4.5-1.9c3.3,0,4.9,1.5,4.9,4.2v8.7H164.3z"/>
		<path class="st2" d="M171.9,99.2c-2.1,0-3.1-1.3-3.1-3.3V80.5h1.3v15.4c0,1.4,0.4,2.1,1.9,2.1h0.9v1.2H171.9z"/>
	</g>
	<g>
		<path class="st1" d="M52.9,116.4c0,1.2-0.1,2.2-0.4,3.1c-0.3,0.8-0.7,1.6-1.3,2.2c-1.3,1.4-3.1,2.1-5.2,2.1
			c-0.7,0-1.3-0.1-1.8-0.2c-0.6-0.2-1.1-0.4-1.7-0.7c-0.5-0.3-1-0.7-1.4-1.1c-0.6-0.6-1-1.2-1.3-1.9c-0.3-0.7-0.4-1.4-0.5-2.2
			c-0.1-0.8-0.1-1.9-0.1-3.4c0-1.1,0-2,0-2.7c0-0.7,0.1-1.3,0.2-1.8c0.1-0.6,0.3-1.1,0.5-1.6c0.2-0.5,0.6-1,1.1-1.4
			c1.3-1.3,3-2,4.9-2c1.3,0,2.4,0.3,3.4,0.8c1,0.5,1.7,1.2,2.3,2.1c0.6,0.9,1,1.9,1.1,3H50c-0.2-0.7-0.4-1.3-0.8-1.7
			c-0.4-0.5-0.8-0.9-1.3-1.1c-0.5-0.3-1.2-0.4-1.9-0.4c-0.5,0-1,0.1-1.5,0.3c-0.5,0.2-0.9,0.5-1.2,0.8c-0.5,0.5-0.8,1.1-0.9,1.9
			c-0.2,0.8-0.2,2.1-0.2,3.9c0,1,0,1.8,0,2.3c0,0.6,0.1,1.1,0.2,1.5c0.1,0.5,0.2,0.8,0.3,1.1c0.1,0.3,0.3,0.6,0.6,0.9
			c0.3,0.4,0.7,0.6,1.2,0.8c0.5,0.2,1,0.3,1.6,0.3c1.3,0,2.3-0.4,3.1-1.3c0.6-0.7,1-1.7,1-2.9V116h-4v-2.4h6.9V116.4z"/>
		<path class="st1" d="M64.9,111.5l-2,2c-0.3-0.3-0.6-0.5-0.9-0.7c-0.3-0.1-0.7-0.2-1.1-0.2c-0.5,0-0.9,0.1-1.3,0.4
			c-0.4,0.2-0.7,0.6-1,1c-0.2,0.5-0.4,1-0.4,1.6v8.1h-2.7v-13.4h2.6v1.5c0.4-0.5,0.8-0.9,1.5-1.2c0.6-0.3,1.3-0.4,2.1-0.4
			c0.7,0,1.2,0.1,1.7,0.3C63.9,110.7,64.4,111,64.9,111.5z"/>
		<path class="st1" d="M76.3,117c0,1.2-0.1,2.3-0.3,3.1c-0.2,0.8-0.6,1.6-1.3,2.2c-1,1.1-2.4,1.6-4,1.6c-1.6,0-3-0.5-4-1.6
			c-0.6-0.6-1-1.4-1.2-2.2c-0.2-0.8-0.3-1.9-0.3-3.1c0-1.2,0.1-2.2,0.3-3.1c0.2-0.8,0.6-1.6,1.2-2.2c0.3-0.3,0.6-0.6,1-0.8
			c0.4-0.2,0.8-0.4,1.3-0.6c0.5-0.1,1.1-0.2,1.6-0.2c0.9,0,1.7,0.1,2.3,0.4c0.7,0.3,1.2,0.7,1.7,1.1c0.6,0.6,1,1.4,1.2,2.2
			C76.2,114.8,76.3,115.8,76.3,117z M73.6,117c0-0.9-0.1-1.6-0.2-2.2c-0.1-0.6-0.4-1.1-0.7-1.5c-0.5-0.5-1.1-0.8-2-0.8
			c-0.8,0-1.5,0.3-2,0.8c-0.4,0.4-0.6,0.9-0.7,1.5c-0.1,0.6-0.2,1.3-0.2,2.2c0,0.9,0.1,1.6,0.2,2.2c0.1,0.6,0.4,1.1,0.7,1.5
			c0.5,0.5,1.2,0.8,2,0.8c0.8,0,1.5-0.3,2-0.8c0.4-0.4,0.6-0.9,0.7-1.5C73.5,118.6,73.6,117.9,73.6,117z"/>
		<path class="st1" d="M89.3,123.7h-2.6v-1.3c-0.5,0.5-1,0.9-1.6,1.1c-0.6,0.3-1.3,0.4-2,0.4c-1.3,0-2.4-0.4-3.3-1.2
			c-0.5-0.5-0.8-1-1-1.6c-0.2-0.6-0.3-1.3-0.3-2.1v-8.5h2.7v8.1c0,1,0.2,1.7,0.7,2.2c0.5,0.5,1.1,0.7,1.9,0.7c0.8,0,1.5-0.3,2-0.8
			c0.5-0.5,0.8-1.2,0.8-2.2v-8.1h2.7V123.7z"/>
		<path class="st1" d="M103.2,117c0,0.8,0,1.6-0.1,2.2c-0.1,0.7-0.2,1.3-0.4,1.9c-0.2,0.6-0.5,1.1-1,1.5c-0.4,0.4-0.8,0.7-1.4,0.9
			c-0.6,0.2-1.2,0.3-1.8,0.3c-0.7,0-1.4-0.1-2-0.4c-0.6-0.2-1.1-0.6-1.5-1.2v6.8h-2.7v-18.8h2.6v1.4c0.5-0.6,1-1,1.6-1.2
			c0.6-0.2,1.2-0.3,2-0.3c0.7,0,1.3,0.1,1.9,0.3c0.6,0.2,1,0.5,1.4,0.9c0.4,0.4,0.7,0.9,1,1.5c0.2,0.6,0.4,1.2,0.4,1.9
			C103.2,115.4,103.2,116.2,103.2,117z M100.5,117c0-0.9-0.1-1.7-0.2-2.3c-0.1-0.6-0.4-1.1-0.8-1.5c-0.4-0.4-1-0.6-1.7-0.6
			c-0.8,0-1.4,0.2-1.8,0.6c-0.4,0.4-0.7,0.9-0.8,1.5c-0.1,0.6-0.2,1.4-0.2,2.3c0,0.9,0.1,1.7,0.2,2.3c0.1,0.6,0.4,1.2,0.8,1.5
			c0.4,0.4,1,0.6,1.8,0.6c1.1,0,1.8-0.4,2.2-1.2S100.5,118.4,100.5,117z"/>
	</g>
</g>
</svg>
