<?xml version="1.0" encoding="utf-8"?>
<!-- Generator: Adobe Illustrator 26.0.2, SVG Export Plug-In . SVG Version: 6.00 Build 0)  -->
<svg version="1.1" id="Layer_1" xmlns="http://www.w3.org/2000/svg" xmlns:xlink="http://www.w3.org/1999/xlink" x="0px" y="0px"
	 viewBox="0 0 1873.5 1873.5" style="enable-background:new 0 0 1873.5 1873.5;" xml:space="preserve">
<style type="text/css">
	.st0{opacity:0.9;}
	.st1{fill:url(#SVGID_1_);}
	.st2{fill:url(#SVGID_00000094591434551449203100000010495103525796498845_);}
	.st3{fill:url(#SVGID_00000071523449395008697810000013317203479618892956_);}
	.st4{fill:url(#SVGID_00000072252622425414058110000006988269800822922933_);}
	.st5{fill:url(#SVGID_00000041994223206845548350000000821524866548480697_);}
	.st6{fill:url(#SVGID_00000160877937515289817490000000277171945805169046_);}
	.st7{fill:url(#SVGID_00000085232332227287590240000000235252741057629855_);}
	.st8{fill:url(#SVGID_00000102540459449643644990000006265024695449895077_);}
	.st9{fill:url(#SVGID_00000039127079673172733450000002922144950501397910_);}
	.st10{fill:url(#SVGID_00000061469435217446876760000014625933119669358754_);}
	.st11{fill:url(#SVGID_00000181052222364714338710000002591026571547723948_);}
	.st12{fill:url(#SVGID_00000160165592072158543770000004817001107906468517_);}
	.st13{fill:url(#SVGID_00000141443251798676880890000007715805642194633140_);}
	.st14{fill:url(#SVGID_00000024003527413495253680000010315077743983707531_);}
	.st15{fill:url(#SVGID_00000039125479673688334830000004100746514510616466_);}
	.st16{fill:url(#SVGID_00000170279156281140780760000010799745558989313921_);}
	.st17{fill:url(#SVGID_00000167365895536626942170000004670837095516882304_);}
	.st18{fill:url(#SVGID_00000001655906874097325460000011443216179084312714_);}
	.st19{fill:url(#SVGID_00000124150612141598119090000002674006659613504154_);}
	.st20{fill:url(#SVGID_00000039825348849615928090000015960422345510814125_);}
	.st21{fill:url(#SVGID_00000041258638279824057340000011922813615986702465_);}
	.st22{fill:url(#SVGID_00000130616203986939613800000010015749904173604286_);}
	.st23{fill:url(#SVGID_00000163032762144274286440000018111112963185022090_);}
	.st24{fill:url(#SVGID_00000167376891267389270310000001686309417240999323_);}
	.st25{fill:url(#SVGID_00000087406420015519488740000010625172109035849118_);}
	.st26{fill:url(#SVGID_00000109738994999046323360000007969411787017287845_);}
	.st27{fill:url(#SVGID_00000121273268679472108770000003789841101326583171_);}
	.st28{fill:url(#SVGID_00000061471641570733677350000004833786479649054646_);}
	.st29{fill:url(#SVGID_00000028294746287499162670000000340405657199765421_);}
	.st30{fill:url(#SVGID_00000036959639664875791290000009779137715700900522_);}
	.st31{fill:url(#SVGID_00000144312815760091738880000018356144438435703479_);}
	.st32{fill:url(#SVGID_00000076591857655496433900000007775350242084398742_);}
	.st33{fill:url(#SVGID_00000096040142760803188850000016554893830852058782_);}
	.st34{fill:url(#SVGID_00000087390430020523924380000009779811576826683817_);}
	.st35{fill:url(#SVGID_00000016061655693560993470000007295492921978078638_);}
	.st36{fill:url(#SVGID_00000096041792977277278780000012548870900100111039_);}
</style>
<g>
	<g class="st0">
		<linearGradient id="SVGID_1_" gradientUnits="userSpaceOnUse" x1="704.5083" y1="470.0664" x2="1168.9692" y2="470.0664">
			<stop  offset="0" style="stop-color:#200E82"/>
			<stop  offset="4.858781e-02" style="stop-color:#2E0E7B"/>
			<stop  offset="0.1402" style="stop-color:#520E67"/>
			<stop  offset="0.265" style="stop-color:#8D0E47"/>
			<stop  offset="0.4168" style="stop-color:#DE0F1B"/>
			<stop  offset="0.4669" style="stop-color:#FA0F0C"/>
			<stop  offset="1" style="stop-color:#200E82"/>
		</linearGradient>
		<path class="st1" d="M936.7,940.1c-31.8,0-62.6-14.5-91.5-43c-27.6-27.3-52.3-66.2-73.5-115.7c-43.4-101.5-67.3-236.3-67.3-379.6
			c0-139.1,22.7-244,67.6-311.9c20.2-30.6,45.1-53.8,74-68.8C872.9,7.1,903.4,0,936.7,0s63.8,7.1,90.6,21.1
			c28.9,15,53.8,38.2,74,68.8c44.8,67.9,67.6,172.8,67.6,311.9c0,143.3-23.9,278.2-67.3,379.6c-21.2,49.5-45.9,88.5-73.5,115.7
			C999.3,925.7,968.6,940.1,936.7,940.1z M936.7,6.8c-67.4,0-120.9,29.2-159,86.9c-44.1,66.7-66.5,170.4-66.5,308.1
			c0,142.4,23.7,276.3,66.8,376.9c20.8,48.7,45.1,86.9,72,113.6c27.6,27.2,56.7,41.1,86.7,41.1s59.1-13.8,86.7-41.1
			c26.9-26.6,51.2-64.8,72-113.6c43-100.6,66.8-234.5,66.8-376.9c0-137.7-22.4-241.4-66.5-308.1C1057.6,36,1004.1,6.8,936.7,6.8z"/>
	</g>
	<g class="st0">
		
			<linearGradient id="SVGID_00000017491050296881261090000008927252216656806021_" gradientUnits="userSpaceOnUse" x1="599.6886" y1="476.2708" x2="1091.1218" y2="476.2708">
			<stop  offset="0" style="stop-color:#200E82"/>
			<stop  offset="4.858781e-02" style="stop-color:#2E0E7B"/>
			<stop  offset="0.1402" style="stop-color:#520E67"/>
			<stop  offset="0.265" style="stop-color:#8D0E47"/>
			<stop  offset="0.4168" style="stop-color:#DE0F1B"/>
			<stop  offset="0.4669" style="stop-color:#FA0F0C"/>
			<stop  offset="1" style="stop-color:#200E82"/>
		</linearGradient>
		<path style="fill:url(#SVGID_00000017491050296881261090000008927252216656806021_);" d="M919.2,941.7c-25.8,0-52.4-9.4-79.4-28.1
			c-31.9-22.1-63-56.1-92.5-101.2C687,720,640,591.4,615.1,450.2c-24.1-137-20-244.2,12.4-318.9c14.6-33.7,35.1-60.8,60.9-80.6
			c24-18.4,52.8-30.7,85.6-36.5c32.8-5.8,64.1-4.1,92.9,5c31,9.8,59.6,28.3,84.8,54.9c56,59,96.6,158.4,120.7,295.4
			c24.9,141.2,24.8,278.1-0.4,385.5c-12.3,52.5-29.8,95.1-52.3,126.7c-23.5,33.1-51.3,52.7-82.6,58.2
			C931.3,941.1,925.3,941.7,919.2,941.7z M811.7,17.6c-11.9,0-24,1.1-36.5,3.3c-66.4,11.7-114,49.8-141.5,113.2
			c-31.8,73.4-35.9,179.3-11.9,315c24.7,140.3,71.3,268,131.2,359.6c29,44.4,59.5,77.8,90.6,99.3c31.9,22,63,30.6,92.5,25.4
			c29.5-5.2,55.8-23.9,78.2-55.5c21.9-30.9,39.1-72.7,51.2-124.3c24.9-106.6,25-242.5,0.3-382.8c-23.9-135.6-63.9-233.8-119-291.9
			C908.3,38.1,863,17.6,811.7,17.6z"/>
	</g>
	<g class="st0">
		
			<linearGradient id="SVGID_00000102513223523389422720000013887820988687798951_" gradientUnits="userSpaceOnUse" x1="484.3481" y1="495.0354" x2="1039.5278" y2="495.0354">
			<stop  offset="0" style="stop-color:#200E82"/>
			<stop  offset="4.858781e-02" style="stop-color:#2E0E7B"/>
			<stop  offset="0.1402" style="stop-color:#520E67"/>
			<stop  offset="0.265" style="stop-color:#8D0E47"/>
			<stop  offset="0.4168" style="stop-color:#DE0F1B"/>
			<stop  offset="0.4669" style="stop-color:#FA0F0C"/>
			<stop  offset="1" style="stop-color:#200E82"/>
		</linearGradient>
		<path style="fill:url(#SVGID_00000102513223523389422720000013887820988687798951_);" d="M901.1,946.3c-20,0-41.4-5.2-63.9-15.5
			c-35.2-16.2-71.8-44.3-108.6-83.6c-75.5-80.5-144-199-193.1-333.7c-47.6-130.7-62.1-237.1-43.1-316.2c8.5-35.7,24-66,46-90
			c20.4-22.3,46.7-39.4,78-50.8c31.3-11.4,62.4-15.2,92.4-11.2c32.3,4.3,63.6,17.5,93.1,39.4c65.4,48.4,122.6,139.2,170.2,269.9
			c49,134.7,72.7,269.6,66.6,379.7c-3,53.8-12.9,98.8-29.5,133.9c-17.4,36.7-41.3,60.8-71.2,71.7C926.2,944.2,914,946.3,901.1,946.3
			z M685.5,50.5c-21.8,0-44.1,4.1-66.8,12.4c-63.3,23.1-103.6,68.8-119.7,136c-18.6,77.8-4.2,182.9,42.9,312.3
			C590.6,645,658.7,762.7,733.6,842.5c36.3,38.7,72.1,66.3,106.5,82.1c35.2,16.2,67.3,19.2,95.5,8.9c28.2-10.2,50.8-33.2,67.4-68.2
			c16.2-34.2,25.9-78.4,28.8-131.3c6-109.3-17.5-243.2-66.2-377C918.5,227.5,862,137.8,797.8,90.1C762.2,63.7,724.6,50.5,685.5,50.5
			z"/>
	</g>
	<g class="st0">
		
			<linearGradient id="SVGID_00000145033378938613581930000009391607635919989438_" gradientUnits="userSpaceOnUse" x1="370.2621" y1="526.2339" x2="1005.5963" y2="526.2339">
			<stop  offset="0" style="stop-color:#200E82"/>
			<stop  offset="4.858781e-02" style="stop-color:#2E0E7B"/>
			<stop  offset="0.1402" style="stop-color:#520E67"/>
			<stop  offset="0.265" style="stop-color:#8D0E47"/>
			<stop  offset="0.4168" style="stop-color:#DE0F1B"/>
			<stop  offset="0.4669" style="stop-color:#FA0F0C"/>
			<stop  offset="1" style="stop-color:#200E82"/>
		</linearGradient>
		<path style="fill:url(#SVGID_00000145033378938613581930000009391607635919989438_);" d="M881.4,954.2c-13.7,0-28.2-2-43.6-6
			c-37.5-9.8-78.4-31.2-121.5-63.5c-88.3-66.2-176.4-171-248.1-295.1c-69.5-120.4-102.3-222.7-97.4-303.9
			c2.2-36.7,12.2-69.2,29.7-96.6c16.3-25.5,39.1-46.9,68-63.6c28.8-16.6,58.8-25.8,89-27.1c32.5-1.4,65.6,6.2,98.5,22.6
			c72.8,36.3,144.9,115.8,214.5,236.3l0,0c71.7,124.1,118.4,252.8,131.5,362.4c6.4,53.5,4.5,99.6-5.8,137
			c-10.7,39.2-30.1,67.1-57.7,83C921.7,949.4,902.6,954.2,881.4,954.2z M565,105c-31.6,0-62.8,8.8-93.3,26.4
			c-58.4,33.7-90.1,85.8-94.2,154.7c-4.8,79.8,27.6,180.8,96.5,300.1c71.2,123.4,158.7,227.4,246.3,293.1
			c42.4,31.8,82.5,52.8,119.1,62.4c37.5,9.8,69.7,7.2,95.6-7.8c26-15,44.3-41.5,54.5-78.9c10-36.5,11.9-81.7,5.6-134.4
			c-13-108.7-59.4-236.5-130.7-359.8c-68.9-119.3-140.1-197.9-211.6-233.6C623.3,112.4,594,105,565,105z"/>
	</g>
	<g class="st0">
		
			<linearGradient id="SVGID_00000011732345089284134480000012206306460752216983_" gradientUnits="userSpaceOnUse" x1="264.7172" y1="569.3338" x2="982.3315" y2="569.3338">
			<stop  offset="0" style="stop-color:#200E82"/>
			<stop  offset="4.858781e-02" style="stop-color:#2E0E7B"/>
			<stop  offset="0.1402" style="stop-color:#520E67"/>
			<stop  offset="0.265" style="stop-color:#8D0E47"/>
			<stop  offset="0.4168" style="stop-color:#DE0F1B"/>
			<stop  offset="0.4669" style="stop-color:#FA0F0C"/>
			<stop  offset="1" style="stop-color:#200E82"/>
		</linearGradient>
		<path style="fill:url(#SVGID_00000011732345089284134480000012206306460752216983_);" d="M857.5,965.9c-5.3,0-10.7-0.2-16.3-0.7
			c-38.6-3.2-82.6-17.1-130.7-41.4C612.1,873.9,507.1,786,415,676.2c-89.4-106.5-139.4-201.5-148.7-282.3
			c-4.2-36.5,0-70.2,12.4-100.3c11.6-28,30.4-53,55.9-74.4c25.5-21.4,53.4-35.6,83-42.1c31.8-7,65.7-5.3,100.9,5.2
			c78,23.2,162.8,88.9,252.2,195.5c92.1,109.8,160.5,228.4,192.5,334.1c15.6,51.6,21.7,97.3,18.1,135.9c-3.8,40.4-18,71.3-42.4,91.7
			C917.9,957,890.6,965.9,857.5,965.9z M456.7,179.5c-42.7,0-82.2,15-117.7,44.8c-51.6,43.3-73.8,100.1-65.9,168.7
			c9.1,79.5,58.6,173.3,147.1,278.7C511.7,781,615.9,868.3,713.6,917.7c47.3,23.9,90.4,37.6,128.2,40.7c5.4,0.4,10.6,0.7,15.8,0.7
			c31.4,0,57.3-8.4,77-24.9c23-19.3,36.4-48.6,40-87.2c3.5-37.7-2.5-82.6-17.8-133.3C925,608.9,857.1,491.1,765.6,382
			c-88.5-105.5-172.3-170.5-249-193.3C496,182.6,476,179.5,456.7,179.5z"/>
	</g>
	<g class="st0">
		
			<linearGradient id="SVGID_00000011014594753611701230000003114695205862615947_" gradientUnits="userSpaceOnUse" x1="172.8106" y1="623.5244" x2="965.8574" y2="623.5244">
			<stop  offset="0" style="stop-color:#200E82"/>
			<stop  offset="4.858781e-02" style="stop-color:#2E0E7B"/>
			<stop  offset="0.1402" style="stop-color:#520E67"/>
			<stop  offset="0.265" style="stop-color:#8D0E47"/>
			<stop  offset="0.4168" style="stop-color:#DE0F1B"/>
			<stop  offset="0.4669" style="stop-color:#FA0F0C"/>
			<stop  offset="1" style="stop-color:#200E82"/>
		</linearGradient>
		<path style="fill:url(#SVGID_00000011014594753611701230000003114695205862615947_);" d="M825.3,982.3
			c-33.5,0-71.6-6.4-113.6-19.1c-105.6-32-224.3-100.3-334.1-192.5c-106.5-89.4-172.3-174.3-195.5-252.2
			c-10.5-35.2-12.2-69.2-5.2-100.9c6.5-29.6,20.7-57.5,42.1-83c21.4-25.5,46.4-44.3,74.4-55.9c30.1-12.4,63.8-16.6,100.3-12.4
			c80.8,9.3,175.8,59.3,282.3,148.7C786,507.1,873.9,612.1,923.7,710.5c24.3,48.1,38.3,92,41.4,130.7c3.3,40.5-5.4,73.3-25.8,97.7
			c-20.5,24.4-51.3,38.6-91.7,42.4C840.4,982,833,982.3,825.3,982.3z M366.7,271.5c-56.9,0-104.7,22.6-142.4,67.5
			C181,390.6,169,450.4,188.7,516.6c22.8,76.7,87.8,160.4,193.3,249C491.1,857.1,608.9,925,713.7,956.7
			c50.7,15.4,95.6,21.4,133.3,17.8c38.6-3.6,67.9-17.1,87.2-40c19.3-23,27.4-54.2,24.3-92.8c-3.1-37.8-16.8-80.9-40.7-128.2
			C868.3,615.9,781,511.7,671.8,420.2c-105.5-88.5-199.3-138-278.7-147.1C384.1,272,375.3,271.5,366.7,271.5z"/>
	</g>
	<g class="st0">
		
			<linearGradient id="SVGID_00000019640696709175391110000005690480955547106944_" gradientUnits="userSpaceOnUse" x1="98.2713" y1="687.9286" x2="954.1965" y2="687.9286">
			<stop  offset="0" style="stop-color:#200E82"/>
			<stop  offset="4.858781e-02" style="stop-color:#2E0E7B"/>
			<stop  offset="0.1402" style="stop-color:#520E67"/>
			<stop  offset="0.265" style="stop-color:#8D0E47"/>
			<stop  offset="0.4168" style="stop-color:#DE0F1B"/>
			<stop  offset="0.4669" style="stop-color:#FA0F0C"/>
			<stop  offset="1" style="stop-color:#200E82"/>
		</linearGradient>
		<path style="fill:url(#SVGID_00000019640696709175391110000005690480955547106944_);" d="M778.1,1005.6c-18.3,0-37.8-1.2-58.3-3.7
			C610.2,988.8,481.5,942,357.3,870.4C236.9,800.8,157.4,728.7,121,655.9c-16.4-32.9-24-66-22.6-98.5c1.3-30.2,10.4-60.2,27.1-89
			c16.6-28.8,38-51.7,63.6-68c27.4-17.5,60-27.5,96.6-29.7c81.2-4.9,183.4,27.9,303.9,97.4c124.1,71.7,228.9,159.8,295.1,248.1
			c32.3,43.1,53.7,84,63.5,121.5c10.3,39.3,7.4,73.2-8.5,100.7c-15.9,27.6-43.8,47-83,57.7C833.7,1002.4,807.4,1005.6,778.1,1005.6z
			 M301.9,377c-5.4,0-10.6,0.2-15.8,0.5c-69,4.2-121,35.9-154.7,94.2s-35.1,119.3-4.3,181.1c35.7,71.6,114.3,142.8,233.6,211.6
			c123.4,71.2,251.1,117.6,359.8,130.7c52.6,6.3,97.8,4.4,134.4-5.6c37.4-10.2,63.9-28.6,78.9-54.5c15-26,17.6-58.1,7.8-95.6
			c-9.6-36.6-30.6-76.7-62.4-119.1C813.6,632.7,709.5,545.2,586.2,474C474.6,409.6,379.1,377,301.9,377z"/>
	</g>
	<g class="st0">
		
			<linearGradient id="SVGID_00000158751764837000246990000008975617747070736045_" gradientUnits="userSpaceOnUse" x1="43.7757" y1="761.9381" x2="946.2958" y2="761.9381">
			<stop  offset="0" style="stop-color:#200E82"/>
			<stop  offset="4.858781e-02" style="stop-color:#2E0E7B"/>
			<stop  offset="0.1402" style="stop-color:#520E67"/>
			<stop  offset="0.265" style="stop-color:#8D0E47"/>
			<stop  offset="0.4168" style="stop-color:#DE0F1B"/>
			<stop  offset="0.4669" style="stop-color:#FA0F0C"/>
			<stop  offset="1" style="stop-color:#200E82"/>
		</linearGradient>
		<path style="fill:url(#SVGID_00000158751764837000246990000008975617747070736045_);" d="M699.5,1039.5
			c-103.2,0-224.1-23.6-344.9-67.5C223.9,924.4,133.1,867.2,84.7,801.8c-21.9-29.5-35.1-60.8-39.4-93.1c-4-30-0.2-61.1,11.2-92.4
			c11.4-31.3,28.5-57.5,50.8-78c24-22,54.3-37.4,90-46c79.1-18.9,185.5-4.4,316.2,43.1c134.7,49,253.2,117.6,333.7,193.1
			c39.3,36.9,67.4,73.4,83.6,108.6c17,36.9,20,70.8,9.1,100.7c-10.9,29.9-35,53.9-71.7,71.2c-35,16.6-80.1,26.5-133.9,29.5
			C723,1039.2,711.4,1039.5,699.5,1039.5z M271.1,491.1c-26.2,0-50.3,2.6-72.3,7.9c-67.2,16.1-113,56.3-136,119.7
			C39.8,682,49,742.3,90.1,797.8c47.6,64.3,137.4,120.7,266.8,167.8c120.1,43.7,240.2,67.1,342.6,67.1c11.7,0,23.2-0.3,34.5-0.9
			c52.9-2.9,97.1-12.6,131.3-28.8c35-16.6,58-39.3,68.2-67.4c10.2-28.2,7.2-60.3-8.9-95.5c-15.8-34.4-43.4-70.3-82.1-106.5
			C762.7,658.7,645,590.6,511.1,541.9C418.2,508.1,337.9,491.1,271.1,491.1z"/>
	</g>
	<g class="st0">
		
			<linearGradient id="SVGID_00000114761114347026112730000007911233750529636790_" gradientUnits="userSpaceOnUse" x1="10.8724" y1="845.4052" x2="941.6689" y2="845.4052">
			<stop  offset="0" style="stop-color:#200E82"/>
			<stop  offset="4.858781e-02" style="stop-color:#2E0E7B"/>
			<stop  offset="0.1402" style="stop-color:#520E67"/>
			<stop  offset="0.265" style="stop-color:#8D0E47"/>
			<stop  offset="0.4168" style="stop-color:#DE0F1B"/>
			<stop  offset="0.4669" style="stop-color:#FA0F0C"/>
			<stop  offset="1" style="stop-color:#200E82"/>
		</linearGradient>
		<path style="fill:url(#SVGID_00000114761114347026112730000007911233750529636790_);" d="M574,1091.1c-65,0-134.2-6.2-204.5-18.6
			c-137-24.1-236.3-64.8-295.4-120.7C47.5,926.6,29,898,19.3,867c-9.1-28.9-10.8-60.1-5-92.9c5.8-32.8,18.1-61.6,36.5-85.6
			c19.8-25.8,46.9-46.3,80.6-60.9c74.6-32.4,181.9-36.6,318.9-12.4C591.4,640,720,687,812.4,747.3c45.1,29.5,79.2,60.6,101.2,92.5
			c23.1,33.4,32,66.2,26.5,97.5c-5.5,31.3-25.1,59.1-58.2,82.6c-31.6,22.4-74.3,40-126.7,52.3C701.1,1084.8,639.7,1091.1,574,1091.1
			z M291.3,606.5c-62.7,0-115.3,9.1-157.2,27.3C70.7,661.3,32.6,708.9,20.9,775.3c-11.7,66.4,7.8,124.1,57.9,171.7
			c58.1,55,156.3,95,291.9,119c140.3,24.7,276.2,24.6,382.8-0.3c51.6-12.1,93.4-29.3,124.3-51.2c31.6-22.4,50.3-48.7,55.5-78.2
			c5.2-29.5-3.3-60.6-25.4-92.5c-21.6-31.2-55-61.6-99.3-90.6C717,693.2,589.3,646.6,449,621.8C390.9,611.6,338.3,606.5,291.3,606.5
			z"/>
	</g>
	<g class="st0">
		
			<linearGradient id="SVGID_00000000933799670752342450000000729008446668858254_" gradientUnits="userSpaceOnUse" x1="0" y1="936.7386" x2="940.1328" y2="936.7386">
			<stop  offset="0" style="stop-color:#200E82"/>
			<stop  offset="4.858781e-02" style="stop-color:#2E0E7B"/>
			<stop  offset="0.1402" style="stop-color:#520E67"/>
			<stop  offset="0.265" style="stop-color:#8D0E47"/>
			<stop  offset="0.4168" style="stop-color:#DE0F1B"/>
			<stop  offset="0.4669" style="stop-color:#FA0F0C"/>
			<stop  offset="1" style="stop-color:#200E82"/>
		</linearGradient>
		<path style="fill:url(#SVGID_00000000933799670752342450000000729008446668858254_);" d="M401.8,1169
			c-139.1,0-244-22.7-311.9-67.6c-30.6-20.2-53.8-45.1-68.8-74C7.1,1000.5,0,970,0,936.7c0-33.3,7.1-63.8,21.1-90.6
			c15-28.9,38.2-53.8,68.8-74c67.9-44.8,172.8-67.6,311.9-67.6c143.3,0,278.2,23.9,379.6,67.3c49.5,21.2,88.5,45.9,115.7,73.5
			c28.5,28.9,43,59.6,43,91.5c0,31.8-14.5,62.6-43,91.5c-27.3,27.6-66.2,52.3-115.7,73.5C679.9,1145.1,545.1,1169,401.8,1169z
			 M401.8,711.3c-137.7,0-241.4,22.4-308.1,66.5C36,815.9,6.8,869.3,6.8,936.7s29.2,120.9,86.9,159c66.7,44.1,170.4,66.5,308.1,66.5
			c142.4,0,276.3-23.7,376.9-66.8c48.7-20.8,86.9-45.1,113.6-72c27.2-27.6,41.1-56.7,41.1-86.7s-13.8-59.1-41.1-86.7
			c-26.6-26.9-64.8-51.2-113.6-72C678.1,735,544.2,711.3,401.8,711.3z"/>
	</g>
	<g class="st0">
		
			<linearGradient id="SVGID_00000168092381955661069520000011992026890611247796_" gradientUnits="userSpaceOnUse" x1="10.8724" y1="1028.0723" x2="941.6689" y2="1028.0723">
			<stop  offset="0" style="stop-color:#200E82"/>
			<stop  offset="4.858781e-02" style="stop-color:#2E0E7B"/>
			<stop  offset="0.1402" style="stop-color:#520E67"/>
			<stop  offset="0.265" style="stop-color:#8D0E47"/>
			<stop  offset="0.4168" style="stop-color:#DE0F1B"/>
			<stop  offset="0.4669" style="stop-color:#FA0F0C"/>
			<stop  offset="1" style="stop-color:#200E82"/>
		</linearGradient>
		<path style="fill:url(#SVGID_00000168092381955661069520000011992026890611247796_);" d="M291.4,1273.8
			c-63.7,0-117.2-9.3-160-27.9c-33.7-14.6-60.8-35.1-80.6-60.9c-18.4-24-30.7-52.8-36.5-85.6c-5.8-32.8-4.1-64.1,5-92.9
			c9.8-31,28.3-59.6,54.9-84.8c59-56,158.4-96.6,295.4-120.7l0.6,3.3l-0.6-3.3c141.2-24.9,278.1-24.8,385.5,0.4
			c52.5,12.3,95.1,29.8,126.7,52.3c33.1,23.5,52.7,51.3,58.2,82.6c5.5,31.3-3.4,64.2-26.5,97.5c-22.1,31.9-56.1,63-101.2,92.5
			c-92.4,60.4-221,107.3-362.2,132.2C391.8,1268.6,338.7,1273.8,291.4,1273.8z M574,789.1c-64.6,0-133.4,6.2-203.3,18.5
			c-135.6,23.9-233.8,63.9-291.9,119c-50.2,47.5-69.6,105.3-57.9,171.7c11.7,66.4,49.8,114,113.2,141.5
			c41.9,18.2,94.5,27.3,157.2,27.3c47,0,99.6-5.1,157.7-15.4c140.3-24.7,268-71.3,359.6-131.2c44.4-29,77.8-59.5,99.3-90.6
			c22-31.9,30.6-63,25.4-92.5c-5.2-29.5-23.9-55.8-55.5-78.2c-30.9-21.9-72.7-39.1-124.3-51.2C700.1,795.4,639.2,789.1,574,789.1z"
			/>
	</g>
	<g class="st0">
		
			<linearGradient id="SVGID_00000111162094491083130130000006633143522920974229_" gradientUnits="userSpaceOnUse" x1="43.7757" y1="1111.5397" x2="946.2958" y2="1111.5397">
			<stop  offset="0" style="stop-color:#200E82"/>
			<stop  offset="4.858781e-02" style="stop-color:#2E0E7B"/>
			<stop  offset="0.1402" style="stop-color:#520E67"/>
			<stop  offset="0.265" style="stop-color:#8D0E47"/>
			<stop  offset="0.4168" style="stop-color:#DE0F1B"/>
			<stop  offset="0.4669" style="stop-color:#FA0F0C"/>
			<stop  offset="1" style="stop-color:#200E82"/>
		</linearGradient>
		<path style="fill:url(#SVGID_00000111162094491083130130000006633143522920974229_);" d="M271.1,1389.1c-26.7,0-51.4-2.7-73.8-8
			c-35.7-8.5-66-24-90-46c-22.3-20.4-39.4-46.7-50.8-78c-11.4-31.3-15.2-62.4-11.2-92.4c4.3-32.3,17.5-63.6,39.4-93.1
			c48.4-65.4,139.2-122.6,269.9-170.2h0c134.7-49,269.6-72.7,379.7-66.6c53.8,3,98.8,12.9,133.9,29.5c36.7,17.4,60.8,41.3,71.7,71.2
			c10.9,29.9,7.8,63.8-9.1,100.7c-16.2,35.2-44.3,71.8-83.6,108.6c-80.5,75.5-199,144-333.7,193.1
			C419.8,1372,338.7,1389.1,271.1,1389.1z M699.5,840.7c-102.4,0-222.5,23.4-342.6,67.1C227.5,955,137.8,1011.4,90.1,1075.7
			c-41.1,55.5-50.3,115.8-27.3,179.1c23.1,63.3,68.8,103.6,136,119.7c77.8,18.6,182.9,4.2,312.3-42.9
			c133.9-48.7,251.5-116.8,331.4-191.6c38.7-36.3,66.3-72.1,82.1-106.5c16.2-35.2,19.2-67.3,8.9-95.5
			c-10.2-28.2-33.2-50.8-68.2-67.4c-34.2-16.2-78.4-25.9-131.3-28.8C722.7,841,711.2,840.7,699.5,840.7z"/>
	</g>
	<g class="st0">
		
			<linearGradient id="SVGID_00000005224517850083724270000015663994345246439041_" gradientUnits="userSpaceOnUse" x1="98.2713" y1="1185.5482" x2="954.1965" y2="1185.5482">
			<stop  offset="0" style="stop-color:#200E82"/>
			<stop  offset="4.858781e-02" style="stop-color:#2E0E7B"/>
			<stop  offset="0.1402" style="stop-color:#520E67"/>
			<stop  offset="0.265" style="stop-color:#8D0E47"/>
			<stop  offset="0.4168" style="stop-color:#DE0F1B"/>
			<stop  offset="0.4669" style="stop-color:#FA0F0C"/>
			<stop  offset="1" style="stop-color:#200E82"/>
		</linearGradient>
		<path style="fill:url(#SVGID_00000005224517850083724270000015663994345246439041_);" d="M301.8,1503.2c-5.5,0-10.9-0.2-16.1-0.5
			c-36.7-2.2-69.2-12.2-96.6-29.7c-25.5-16.3-46.9-39.1-63.6-68c-16.6-28.8-25.8-58.8-27.1-89c-1.4-32.5,6.2-65.6,22.6-98.5
			c36.3-72.8,115.8-144.9,236.3-214.5c124.1-71.7,252.8-118.4,362.4-131.5c53.5-6.4,99.6-4.5,137,5.8c39.2,10.7,67.1,30.1,83,57.7
			c15.9,27.6,18.8,61.4,8.5,100.7c-9.8,37.5-31.2,78.4-63.5,121.5c-66.2,88.3-171,176.4-295.1,248.1
			C477,1470.3,380.3,1503.2,301.8,1503.2z M359,1006l1.7,2.9c-119.3,68.9-197.9,140.1-233.6,211.6c-30.9,61.8-29.4,122.7,4.3,181.1
			c33.7,58.4,85.8,90.1,154.7,94.2c5.2,0.3,10.4,0.5,15.8,0.5c77.2,0,172.7-32.6,284.3-97c123.4-71.2,227.4-158.7,293.1-246.3
			c31.8-42.4,52.8-82.5,62.4-119.1c9.8-37.5,7.2-69.7-7.8-95.6c-15-26-41.5-44.3-78.9-54.5c-36.5-10-81.7-11.9-134.4-5.6
			c-108.7,13-236.5,59.4-359.8,130.7L359,1006z"/>
	</g>
	<g class="st0">
		
			<linearGradient id="SVGID_00000074442558538608425880000001388207456931526559_" gradientUnits="userSpaceOnUse" x1="172.8106" y1="1249.9531" x2="965.8574" y2="1249.9531">
			<stop  offset="0" style="stop-color:#200E82"/>
			<stop  offset="4.858781e-02" style="stop-color:#2E0E7B"/>
			<stop  offset="0.1402" style="stop-color:#520E67"/>
			<stop  offset="0.265" style="stop-color:#8D0E47"/>
			<stop  offset="0.4168" style="stop-color:#DE0F1B"/>
			<stop  offset="0.4669" style="stop-color:#FA0F0C"/>
			<stop  offset="1" style="stop-color:#200E82"/>
		</linearGradient>
		<path style="fill:url(#SVGID_00000074442558538608425880000001388207456931526559_);" d="M367,1608.8c-26.3,0-50.9-4.7-73.4-14
			c-28-11.6-53-30.4-74.4-55.9c-21.4-25.5-35.6-53.4-42.1-83c-7-31.8-5.3-65.7,5.2-100.9c23.2-78,88.9-162.8,195.5-252.2l2.2,2.6
			l-2.2-2.6c109.8-92.1,228.4-160.5,334.1-192.5c51.6-15.6,97.3-21.7,135.9-18.1c40.4,3.8,71.3,18,91.7,42.4
			c20.5,24.4,29.1,57.3,25.8,97.7c-3.2,38.6-17.1,82.6-41.4,130.7c-49.8,98.5-137.7,203.4-247.5,295.6
			c-106.5,89.4-201.5,139.4-282.3,148.7C384.7,1608.2,375.8,1608.8,367,1608.8z M825.3,897.9c-32.9,0-70.3,6.3-111.6,18.8
			c-104.8,31.7-222.5,99.6-331.7,191.2c-105.5,88.5-170.5,172.3-193.3,249c-19.7,66.2-7.7,126,35.6,177.6
			c43.3,51.6,100.1,73.8,168.7,65.9c79.5-9.1,173.3-58.6,278.7-147.1c109.1-91.6,196.4-195.8,245.8-293.4
			c23.9-47.3,37.6-90.4,40.7-128.2c3.2-38.6-5-69.8-24.3-92.8c-19.3-23-48.6-36.4-87.2-40C840,898.3,832.8,897.9,825.3,897.9z"/>
	</g>
	<g class="st0">
		
			<linearGradient id="SVGID_00000024689531191569651450000006817104021957700536_" gradientUnits="userSpaceOnUse" x1="264.7172" y1="1304.1433" x2="982.3315" y2="1304.1433">
			<stop  offset="0" style="stop-color:#200E82"/>
			<stop  offset="4.858781e-02" style="stop-color:#2E0E7B"/>
			<stop  offset="0.1402" style="stop-color:#520E67"/>
			<stop  offset="0.265" style="stop-color:#8D0E47"/>
			<stop  offset="0.4168" style="stop-color:#DE0F1B"/>
			<stop  offset="0.4669" style="stop-color:#FA0F0C"/>
			<stop  offset="1" style="stop-color:#200E82"/>
		</linearGradient>
		<path style="fill:url(#SVGID_00000024689531191569651450000006817104021957700536_);" d="M456.9,1700.7c-13.4,0-26.5-1.4-39.3-4.2
			c-29.6-6.5-57.5-20.7-83-42.1c-25.5-21.4-44.3-46.4-55.9-74.4c-12.4-30.1-16.6-63.8-12.4-100.3c9.3-80.8,59.3-175.8,148.7-282.3
			c92.1-109.8,197.1-197.7,295.6-247.5c48.1-24.3,92-38.3,130.7-41.4c40.5-3.3,73.3,5.4,97.7,25.8c24.4,20.5,38.6,51.3,42.4,91.7
			c3.6,38.6-2.5,84.3-18.1,135.9c-32,105.6-100.3,224.3-192.5,334.1c-89.4,106.5-174.3,172.3-252.2,195.5
			C497.5,1697.5,476.8,1700.7,456.9,1700.7z M857.5,914.4c-5.1,0-10.4,0.2-15.8,0.7c-37.8,3.1-80.9,16.8-128.2,40.7
			c-97.7,49.4-201.9,136.7-293.4,245.8c-88.5,105.5-138,199.3-147.1,278.7c-7.9,68.6,14.3,125.4,65.9,168.7
			c35.6,29.8,75,44.8,117.7,44.8c19.3,0,39.3-3.1,59.9-9.2c76.7-22.8,160.4-87.8,249-193.3c91.6-109.1,159.5-226.9,191.2-331.7
			c15.4-50.7,21.4-95.6,17.8-133.3c-3.6-38.6-17.1-67.9-40-87.2C914.8,922.8,888.9,914.4,857.5,914.4z"/>
	</g>
	<g class="st0">
		
			<linearGradient id="SVGID_00000079484493789935693230000008215121049280264857_" gradientUnits="userSpaceOnUse" x1="370.2621" y1="1347.2435" x2="1005.5963" y2="1347.2435">
			<stop  offset="0" style="stop-color:#200E82"/>
			<stop  offset="4.858781e-02" style="stop-color:#2E0E7B"/>
			<stop  offset="0.1402" style="stop-color:#520E67"/>
			<stop  offset="0.265" style="stop-color:#8D0E47"/>
			<stop  offset="0.4168" style="stop-color:#DE0F1B"/>
			<stop  offset="0.4669" style="stop-color:#FA0F0C"/>
			<stop  offset="1" style="stop-color:#200E82"/>
		</linearGradient>
		<path style="fill:url(#SVGID_00000079484493789935693230000008215121049280264857_);" d="M565,1775.2c-2.5,0-5.1-0.1-7.6-0.2
			c-30.2-1.3-60.2-10.4-89-27.1c-28.8-16.6-51.7-38-68-63.6c-17.5-27.4-27.5-60-29.7-96.6c-4.9-81.2,27.9-183.4,97.4-303.9
			c71.7-124.1,159.8-228.9,248.1-295.1c43.1-32.3,84-53.7,121.5-63.5c39.3-10.3,73.2-7.4,100.7,8.5c27.6,15.9,47,43.8,57.7,83
			c10.2,37.4,12.2,83.5,5.8,137c-13.1,109.6-59.9,238.3-131.5,362.4c-69.5,120.4-141.7,199.9-214.5,236.3
			C625.6,1767.6,595.1,1775.2,565,1775.2z M471.1,1285.6l2.9,1.7c-68.9,119.3-101.3,220.2-96.5,300.1c4.2,69,35.9,121,94.2,154.7
			c30.5,17.6,61.6,26.4,93.3,26.4c29,0,58.3-7.4,87.8-22.1c71.6-35.7,142.8-114.3,211.6-233.6c71.2-123.4,117.6-251.1,130.7-359.8
			c6.3-52.6,4.4-97.8-5.6-134.4c-10.2-37.4-28.6-63.9-54.5-78.9c-26-15-58.1-17.6-95.6-7.8c-36.6,9.6-76.7,30.6-119.1,62.4
			c-87.6,65.6-175.1,169.7-246.3,293.1L471.1,1285.6z"/>
	</g>
	<g class="st0">
		
			<linearGradient id="SVGID_00000146465493066475938420000011734895243707039642_" gradientUnits="userSpaceOnUse" x1="484.3481" y1="1378.4421" x2="1039.5278" y2="1378.4421">
			<stop  offset="0" style="stop-color:#200E82"/>
			<stop  offset="4.858781e-02" style="stop-color:#2E0E7B"/>
			<stop  offset="0.1402" style="stop-color:#520E67"/>
			<stop  offset="0.265" style="stop-color:#8D0E47"/>
			<stop  offset="0.4168" style="stop-color:#DE0F1B"/>
			<stop  offset="0.4669" style="stop-color:#FA0F0C"/>
			<stop  offset="1" style="stop-color:#200E82"/>
		</linearGradient>
		<path style="fill:url(#SVGID_00000146465493066475938420000011734895243707039642_);" d="M685.4,1829.7
			c-22.7,0-45.8-4.3-69.1-12.7c-31.3-11.4-57.5-28.5-78-50.8c-22-24-37.4-54.3-46-90c-18.9-79.1-4.4-185.5,43.1-316.2l3.2,1.2
			l-3.2-1.2c49-134.7,117.6-253.2,193.1-333.7c36.9-39.3,73.4-67.4,108.6-83.6c36.9-16.9,70.8-20,100.7-9.1
			c29.9,10.9,53.9,35,71.2,71.7c16.6,35,26.5,80.1,29.5,133.9c6.1,110.2-17.6,245-66.6,379.7c-47.6,130.7-104.8,221.5-170.2,269.9
			c-29.5,21.9-60.8,35.1-93.1,39.4C701,1829.2,693.3,1829.7,685.4,1829.7z M901.1,934c-19.1,0-39.5,5-61.1,14.9
			c-34.4,15.8-70.3,43.4-106.5,82.1c-74.9,79.8-142.9,197.5-191.6,331.4c-47.1,129.4-61.5,234.5-42.9,312.3
			c16.1,67.2,56.3,113,119.7,136c22.7,8.3,45,12.4,66.8,12.4c39.1,0,76.7-13.2,112.3-39.6c64.3-47.6,120.7-137.4,167.8-266.8
			c48.7-133.9,72.2-267.8,66.2-377c-2.9-52.9-12.6-97.1-28.8-131.3c-16.6-35-39.3-58-67.4-68.2C924.7,936,913.2,934,901.1,934z"/>
	</g>
	<g class="st0">
		
			<linearGradient id="SVGID_00000070813542363664102350000005196050914989997489_" gradientUnits="userSpaceOnUse" x1="599.6886" y1="1397.2064" x2="1091.1218" y2="1397.2064">
			<stop  offset="0" style="stop-color:#200E82"/>
			<stop  offset="4.858781e-02" style="stop-color:#2E0E7B"/>
			<stop  offset="0.1402" style="stop-color:#520E67"/>
			<stop  offset="0.265" style="stop-color:#8D0E47"/>
			<stop  offset="0.4168" style="stop-color:#DE0F1B"/>
			<stop  offset="0.4669" style="stop-color:#FA0F0C"/>
			<stop  offset="1" style="stop-color:#200E82"/>
		</linearGradient>
		<path style="fill:url(#SVGID_00000070813542363664102350000005196050914989997489_);" d="M811.4,1862.6c-12.2,0-24.7-1.1-37.4-3.4
			c-32.8-5.8-61.6-18.1-85.6-36.5c-25.8-19.8-46.3-46.9-60.9-80.6c-32.4-74.6-36.6-181.9-12.4-318.9
			c24.9-141.2,71.8-269.8,132.2-362.2c29.5-45.1,60.6-79.2,92.5-101.2c33.4-23.1,66.2-32,97.5-26.5c31.3,5.5,59.1,25.1,82.6,58.2
			c22.4,31.6,40,74.3,52.3,126.7c25.1,107.4,25.2,244.4,0.4,385.5c-24.1,137-64.8,236.3-120.7,295.4c-25.3,26.7-53.8,45.1-84.8,54.9
			C849.3,1859.8,830.7,1862.6,811.4,1862.6z M618.5,1423.8l3.3,0.6c-23.9,135.6-19.9,241.6,11.9,315
			c27.5,63.4,75.1,101.5,141.5,113.2c66.4,11.7,124.1-7.8,171.6-57.9c55-58.1,95-156.3,119-291.9c24.7-140.3,24.6-276.2-0.3-382.8
			c-12.1-51.6-29.3-93.4-51.2-124.3c-22.4-31.6-48.7-50.3-78.2-55.5c-29.5-5.2-60.6,3.3-92.5,25.4c-31.2,21.6-61.6,55-90.6,99.3
			c-59.9,91.6-106.5,219.3-131.2,359.6L618.5,1423.8z"/>
	</g>
	<g class="st0">
		
			<linearGradient id="SVGID_00000177471593325761119620000013553801008617506432_" gradientUnits="userSpaceOnUse" x1="704.5083" y1="1403.4111" x2="1168.9692" y2="1403.4111">
			<stop  offset="0" style="stop-color:#200E82"/>
			<stop  offset="4.858781e-02" style="stop-color:#2E0E7B"/>
			<stop  offset="0.1402" style="stop-color:#520E67"/>
			<stop  offset="0.265" style="stop-color:#8D0E47"/>
			<stop  offset="0.4168" style="stop-color:#DE0F1B"/>
			<stop  offset="0.4669" style="stop-color:#FA0F0C"/>
			<stop  offset="1" style="stop-color:#200E82"/>
		</linearGradient>
		<path style="fill:url(#SVGID_00000177471593325761119620000013553801008617506432_);" d="M936.7,1873.5
			c-33.3,0-63.8-7.1-90.6-21.1c-28.9-15-53.8-38.2-74-68.8c-44.8-67.9-67.6-172.8-67.6-311.9c0-143.3,23.9-278.2,67.3-379.6
			c21.2-49.5,45.9-88.5,73.5-115.7c28.9-28.5,59.6-43,91.5-43s62.6,14.5,91.5,43c27.6,27.3,52.3,66.2,73.5,115.7
			c43.4,101.5,67.3,236.3,67.3,379.6c0,139.1-22.7,244-67.6,311.9c-20.2,30.6-45.1,53.8-74,68.8
			C1000.5,1866.4,970,1873.5,936.7,1873.5z M936.7,940.1c-30,0-59.1,13.8-86.7,41.1c-26.9,26.6-51.2,64.8-72,113.6
			c-43,100.6-66.8,234.5-66.8,376.9c0,137.7,22.4,241.4,66.5,308.1c38.1,57.6,91.6,86.9,159,86.9s120.9-29.2,159-86.9
			c44.1-66.7,66.5-170.4,66.5-308.1c0-142.4-23.7-276.3-66.8-376.9c-20.8-48.7-45.1-86.9-72-113.6
			C995.9,953.9,966.7,940.1,936.7,940.1z"/>
	</g>
	<g class="st0">
		
			<linearGradient id="SVGID_00000082341684024608836000000016146163343775332521_" gradientUnits="userSpaceOnUse" x1="782.3557" y1="1397.2065" x2="1273.7888" y2="1397.2065">
			<stop  offset="0" style="stop-color:#200E82"/>
			<stop  offset="4.858781e-02" style="stop-color:#2E0E7B"/>
			<stop  offset="0.1402" style="stop-color:#520E67"/>
			<stop  offset="0.265" style="stop-color:#8D0E47"/>
			<stop  offset="0.4168" style="stop-color:#DE0F1B"/>
			<stop  offset="0.4669" style="stop-color:#FA0F0C"/>
			<stop  offset="1" style="stop-color:#200E82"/>
		</linearGradient>
		<path style="fill:url(#SVGID_00000082341684024608836000000016146163343775332521_);" d="M1062,1862.6c-19.3,0-37.9-2.8-55.6-8.4
			c-31-9.8-59.6-28.3-84.8-54.9c-56-59-96.6-158.4-120.7-295.4c-24.9-141.2-24.8-278.1,0.4-385.5c12.3-52.5,29.8-95.1,52.3-126.7
			c23.5-33.1,51.3-52.7,82.6-58.2c31.3-5.5,64.2,3.4,97.5,26.5c31.9,22.1,63,56.1,92.5,101.2c60.4,92.4,107.3,221,132.2,362.2
			c24.1,137,20,244.2-12.4,318.9c-14.6,33.7-35.1,60.8-60.9,80.6c-24,18.4-52.8,30.7-85.6,36.5
			C1086.7,1861.5,1074.2,1862.6,1062,1862.6z M954.3,938.6c-5.7,0-11.4,0.5-17,1.5c-29.5,5.2-55.8,23.9-78.2,55.5
			c-21.9,30.9-39.1,72.7-51.2,124.3c-24.9,106.6-25,242.5-0.3,382.8c23.9,135.6,63.9,233.8,119,291.9
			c38.6,40.7,83.9,61.2,135.2,61.2c11.9,0,24-1.1,36.5-3.3c66.4-11.7,114-49.8,141.5-113.2c31.8-73.4,35.9-179.3,11.9-315
			c-24.7-140.3-71.3-268-131.2-359.6c-29-44.4-59.5-77.8-90.6-99.3C1004,947.6,978.7,938.6,954.3,938.6z"/>
	</g>
	<g class="st0">
		
			<linearGradient id="SVGID_00000074434099871973885600000000110918792419325367_" gradientUnits="userSpaceOnUse" x1="833.9498" y1="1378.4421" x2="1389.1294" y2="1378.4421">
			<stop  offset="0" style="stop-color:#200E82"/>
			<stop  offset="4.858781e-02" style="stop-color:#2E0E7B"/>
			<stop  offset="0.1402" style="stop-color:#520E67"/>
			<stop  offset="0.265" style="stop-color:#8D0E47"/>
			<stop  offset="0.4168" style="stop-color:#DE0F1B"/>
			<stop  offset="0.4669" style="stop-color:#FA0F0C"/>
			<stop  offset="1" style="stop-color:#200E82"/>
		</linearGradient>
		<path style="fill:url(#SVGID_00000074434099871973885600000000110918792419325367_);" d="M1188.1,1829.7c-7.8,0-15.6-0.5-23.3-1.5
			c-32.3-4.3-63.6-17.5-93.1-39.4c-65.4-48.4-122.6-139.2-170.2-269.9c-49-134.7-72.7-269.6-66.6-379.7c3-53.8,12.9-98.8,29.5-133.9
			c17.4-36.7,41.3-60.8,71.2-71.7c29.9-10.9,63.8-7.8,100.7,9.1c35.2,16.2,71.8,44.3,108.6,83.6c75.5,80.5,144,199,193.1,333.7
			c47.6,130.7,62.1,237.1,43.1,316.2c-8.5,35.7-24,66-46,90c-20.4,22.3-46.7,39.4-78,50.8
			C1233.9,1825.4,1210.7,1829.7,1188.1,1829.7z M907.9,1516.6c47.1,129.4,103.6,219.2,167.8,266.8c55.5,41.1,115.8,50.3,179.1,27.3
			c63.3-23.1,103.6-68.8,119.7-136c18.6-77.8,4.2-182.9-42.9-312.3c-48.7-133.9-116.8-251.5-191.6-331.4
			c-36.3-38.7-72.1-66.3-106.5-82.1c-35.2-16.2-67.3-19.2-95.5-8.9c-28.2,10.2-50.8,33.2-67.4,68.2c-16.2,34.2-25.9,78.4-28.8,131.3
			C835.6,1248.8,859.1,1382.7,907.9,1516.6z"/>
	</g>
	<g class="st0">
		
			<linearGradient id="SVGID_00000065790668949153445780000014316793841159818664_" gradientUnits="userSpaceOnUse" x1="867.8812" y1="1347.2434" x2="1503.2155" y2="1347.2434">
			<stop  offset="0" style="stop-color:#200E82"/>
			<stop  offset="4.858781e-02" style="stop-color:#2E0E7B"/>
			<stop  offset="0.1402" style="stop-color:#520E67"/>
			<stop  offset="0.265" style="stop-color:#8D0E47"/>
			<stop  offset="0.4168" style="stop-color:#DE0F1B"/>
			<stop  offset="0.4669" style="stop-color:#FA0F0C"/>
			<stop  offset="1" style="stop-color:#200E82"/>
		</linearGradient>
		<path style="fill:url(#SVGID_00000065790668949153445780000014316793841159818664_);" d="M1308.4,1775.2
			c-30.1,0-60.6-7.6-90.9-22.8c-72.8-36.3-144.9-115.8-214.5-236.3c-71.7-124.1-118.4-252.8-131.5-362.4c-6.4-53.5-4.5-99.6,5.8-137
			c10.7-39.2,30.1-67.1,57.7-83c27.6-15.9,61.4-18.8,100.7-8.5c37.5,9.8,78.4,31.2,121.5,63.5c88.3,66.2,176.4,171,248.1,295.1
			c69.5,120.4,102.3,222.7,97.4,303.9c-2.2,36.7-12.2,69.2-29.7,96.6c-16.3,25.5-39.1,46.9-68,63.6s-58.8,25.8-89,27.1
			C1313.5,1775.2,1311,1775.2,1308.4,1775.2z M1009,1512.8c68.9,119.3,140.1,197.9,211.6,233.6c61.8,30.9,122.7,29.4,181.1-4.3
			c58.4-33.7,90.1-85.8,94.2-154.7c4.8-79.8-27.6-180.8-96.5-300.1c-71.2-123.4-158.7-227.4-246.3-293.1
			c-42.4-31.8-82.5-52.8-119.1-62.4c-37.5-9.8-69.7-7.2-95.6,7.8c-26,15-44.3,41.5-54.5,78.9c-10,36.5-11.9,81.7-5.6,134.4
			C891.4,1261.6,937.8,1389.4,1009,1512.8z"/>
	</g>
	<g class="st0">
		
			<linearGradient id="SVGID_00000104706093300906314470000005065641823621662342_" gradientUnits="userSpaceOnUse" x1="891.1461" y1="1304.1439" x2="1608.7601" y2="1304.1439">
			<stop  offset="0" style="stop-color:#200E82"/>
			<stop  offset="4.858781e-02" style="stop-color:#2E0E7B"/>
			<stop  offset="0.1402" style="stop-color:#520E67"/>
			<stop  offset="0.265" style="stop-color:#8D0E47"/>
			<stop  offset="0.4168" style="stop-color:#DE0F1B"/>
			<stop  offset="0.4669" style="stop-color:#FA0F0C"/>
			<stop  offset="1" style="stop-color:#200E82"/>
		</linearGradient>
		<path style="fill:url(#SVGID_00000104706093300906314470000005065641823621662342_);" d="M1416.6,1700.7c-20,0-40.6-3.1-61.7-9.4
			c-78-23.2-162.8-88.9-252.2-195.5c-92.1-109.8-160.5-228.4-192.5-334.1c-15.6-51.6-21.7-97.3-18.1-135.9
			c3.8-40.4,18-71.3,42.4-91.7c24.4-20.5,57.3-29.1,97.7-25.8c38.6,3.2,82.6,17.1,130.7,41.4c98.5,49.8,203.4,137.7,295.6,247.5
			c89.4,106.5,139.4,201.5,148.7,282.3c4.2,36.5,0,70.2-12.4,100.3c-11.6,28-30.4,53-55.9,74.4c-25.5,21.4-53.4,35.6-83,42.1
			C1443.1,1699.3,1430,1700.7,1416.6,1700.7z M1107.9,1491.5c88.5,105.5,172.3,170.5,249,193.3c66.2,19.7,126,7.7,177.6-35.6
			c51.6-43.3,73.8-100.1,65.9-168.7c-9.1-79.5-58.6-173.3-147.1-278.7c-91.6-109.1-195.8-196.4-293.4-245.8
			c-47.3-23.9-90.4-37.6-128.2-40.7c-38.6-3.2-69.8,5-92.8,24.3c-23,19.3-36.4,48.6-40,87.2c-3.5,37.7,2.5,82.6,17.8,133.3
			C948.5,1264.6,1016.3,1382.3,1107.9,1491.5z"/>
	</g>
	<g class="st0">
		
			<linearGradient id="SVGID_00000107556784486664940100000016050679006474247845_" gradientUnits="userSpaceOnUse" x1="907.6201" y1="1249.953" x2="1700.6671" y2="1249.953">
			<stop  offset="0" style="stop-color:#200E82"/>
			<stop  offset="4.858781e-02" style="stop-color:#2E0E7B"/>
			<stop  offset="0.1402" style="stop-color:#520E67"/>
			<stop  offset="0.265" style="stop-color:#8D0E47"/>
			<stop  offset="0.4168" style="stop-color:#DE0F1B"/>
			<stop  offset="0.4669" style="stop-color:#FA0F0C"/>
			<stop  offset="1" style="stop-color:#200E82"/>
		</linearGradient>
		<path style="fill:url(#SVGID_00000107556784486664940100000016050679006474247845_);" d="M1506.5,1608.8c-8.8,0-17.7-0.5-26.9-1.6
			c-80.8-9.3-175.8-59.3-282.3-148.7c-109.8-92.1-197.7-197.1-247.5-295.6c-24.3-48.1-38.3-92-41.4-130.7
			c-3.3-40.5,5.4-73.3,25.8-97.7c20.5-24.4,51.3-38.6,91.7-42.4c38.6-3.6,84.3,2.5,135.9,18.1c105.6,32,224.3,100.3,334.1,192.5
			c106.5,89.4,172.3,174.3,195.5,252.2c10.5,35.2,12.2,69.2,5.2,100.9c-6.5,29.6-20.7,57.5-42.1,83c-21.4,25.5-46.4,44.3-74.4,55.9
			C1557.4,1604.1,1532.8,1608.8,1506.5,1608.8z M1048.2,897.9c-7.5,0-14.7,0.3-21.6,1c-38.6,3.6-67.9,17.1-87.2,40
			c-19.3,23-27.4,54.2-24.3,92.8c3.1,37.8,16.8,80.9,40.7,128.2c49.4,97.7,136.7,201.9,245.8,293.4
			c105.5,88.5,199.3,138,278.7,147.1c9,1,17.8,1.5,26.4,1.5c56.9,0,104.7-22.6,142.4-67.5c43.3-51.6,55.3-111.4,35.6-177.6
			c-22.8-76.7-87.8-160.4-193.3-249c-109.1-91.6-226.9-159.5-331.7-191.2C1118.5,904.2,1081,897.9,1048.2,897.9z"/>
	</g>
	<g class="st0">
		
			<linearGradient id="SVGID_00000136387991249585226630000017181558372463786161_" gradientUnits="userSpaceOnUse" x1="919.281" y1="1185.5481" x2="1775.2061" y2="1185.5481">
			<stop  offset="0" style="stop-color:#200E82"/>
			<stop  offset="4.858781e-02" style="stop-color:#2E0E7B"/>
			<stop  offset="0.1402" style="stop-color:#520E67"/>
			<stop  offset="0.265" style="stop-color:#8D0E47"/>
			<stop  offset="0.4168" style="stop-color:#DE0F1B"/>
			<stop  offset="0.4669" style="stop-color:#FA0F0C"/>
			<stop  offset="1" style="stop-color:#200E82"/>
		</linearGradient>
		<path style="fill:url(#SVGID_00000136387991249585226630000017181558372463786161_);" d="M1571.6,1503.2
			c-78.5,0-175.1-32.9-287.7-97.9c-124.1-71.7-228.9-159.8-295.1-248.1c-32.3-43.1-53.7-84-63.5-121.5
			c-10.3-39.3-7.4-73.2,8.5-100.7c15.9-27.6,43.8-47,83-57.7c37.4-10.2,83.5-12.2,137-5.8c109.6,13.1,238.3,59.9,362.4,131.5
			c120.4,69.5,199.9,141.7,236.3,214.5c16.4,32.9,24,66,22.6,98.5c-1.3,30.2-10.4,60.2-27.1,89c-16.6,28.8-38,51.7-63.6,68
			c-27.4,17.5-60,27.5-96.6,29.7C1582.5,1503.1,1577.1,1503.2,1571.6,1503.2z M1287.3,1399.5c119.3,68.9,220.2,101.3,300.1,96.5
			c69-4.2,121-35.9,154.7-94.2c33.7-58.4,35.1-119.3,4.3-181.1c-35.7-71.6-114.3-142.8-233.6-211.6
			c-123.4-71.2-251.1-117.6-359.8-130.7c-52.6-6.3-97.8-4.4-134.4,5.6c-37.4,10.2-63.9,28.6-78.9,54.5c-15,26-17.6,58.1-7.8,95.6
			c9.6,36.6,30.6,76.7,62.4,119.1C1059.9,1240.8,1164,1328.2,1287.3,1399.5z"/>
	</g>
	<g class="st0">
		
			<linearGradient id="SVGID_00000069395714525137730100000011310986440112943273_" gradientUnits="userSpaceOnUse" x1="927.1817" y1="1111.5397" x2="1829.702" y2="1111.5397">
			<stop  offset="0" style="stop-color:#200E82"/>
			<stop  offset="4.858781e-02" style="stop-color:#2E0E7B"/>
			<stop  offset="0.1402" style="stop-color:#520E67"/>
			<stop  offset="0.265" style="stop-color:#8D0E47"/>
			<stop  offset="0.4168" style="stop-color:#DE0F1B"/>
			<stop  offset="0.4669" style="stop-color:#FA0F0C"/>
			<stop  offset="1" style="stop-color:#200E82"/>
		</linearGradient>
		<path style="fill:url(#SVGID_00000069395714525137730100000011310986440112943273_);" d="M1602.4,1389.1
			c-67.6,0-148.7-17.1-242.4-51.2c-134.7-49-253.2-117.6-333.7-193.1c-39.3-36.9-67.4-73.4-83.6-108.6c-17-36.9-20-70.8-9.1-100.7
			c10.9-29.9,35-53.9,71.7-71.2c35-16.6,80.1-26.5,133.9-29.5c110.2-6.1,245,17.6,379.7,66.6c130.7,47.6,221.5,104.8,269.9,170.2
			c21.9,29.5,35.1,60.8,39.4,93.1c4,30,0.2,61.1-11.2,92.4c-11.4,31.3-28.5,57.5-50.8,78c-24,22-54.3,37.4-90,46
			C1653.8,1386.4,1629.1,1389.1,1602.4,1389.1z M1174,840.7c-11.7,0-23.2,0.3-34.5,0.9c-52.9,2.9-97.1,12.6-131.3,28.8
			c-35,16.6-58,39.3-68.2,67.4c-10.2,28.2-7.2,60.3,8.9,95.5c15.8,34.4,43.4,70.3,82.1,106.5c79.8,74.9,197.5,142.9,331.4,191.6
			c92.9,33.8,173.3,50.8,240,50.8c26.2,0,50.3-2.6,72.3-7.9c67.2-16.1,113-56.3,136-119.7c23.1-63.3,13.9-123.6-27.3-179.1
			c-47.6-64.3-137.4-120.7-266.8-167.8C1396.5,864.2,1276.3,840.7,1174,840.7z"/>
	</g>
	<g class="st0">
		
			<linearGradient id="SVGID_00000170249701524976593790000014459298222185667219_" gradientUnits="userSpaceOnUse" x1="931.8087" y1="1028.0723" x2="1862.605" y2="1028.0723">
			<stop  offset="0" style="stop-color:#200E82"/>
			<stop  offset="4.858781e-02" style="stop-color:#2E0E7B"/>
			<stop  offset="0.1402" style="stop-color:#520E67"/>
			<stop  offset="0.265" style="stop-color:#8D0E47"/>
			<stop  offset="0.4168" style="stop-color:#DE0F1B"/>
			<stop  offset="0.4669" style="stop-color:#FA0F0C"/>
			<stop  offset="1" style="stop-color:#200E82"/>
		</linearGradient>
		<path style="fill:url(#SVGID_00000170249701524976593790000014459298222185667219_);" d="M1582.1,1273.8
			c-47.4,0-100.4-5.1-158.9-15.5c-141.2-24.9-269.8-71.8-362.2-132.2c-45.1-29.5-79.2-60.6-101.2-92.5c-23.1-33.4-32-66.2-26.5-97.5
			c5.5-31.3,25.1-59.1,58.2-82.6c31.6-22.4,74.3-40,126.7-52.3c107.4-25.1,244.4-25.2,385.5-0.4c137,24.1,236.3,64.8,295.4,120.7
			c26.7,25.3,45.1,53.8,54.9,84.8c9.1,28.9,10.8,60.1,5,92.9c-5.8,32.8-18.1,61.6-36.5,85.6c-19.8,25.8-46.9,46.3-80.6,60.9
			C1699.3,1264.5,1645.8,1273.8,1582.1,1273.8z M1299.4,789.1c-65.1,0-126,6.3-179.5,18.8c-51.6,12.1-93.4,29.3-124.3,51.2
			c-31.6,22.4-50.3,48.7-55.5,78.2c-5.2,29.5,3.3,60.6,25.4,92.5c21.6,31.2,55,61.6,99.3,90.6c91.6,59.9,219.3,106.5,359.6,131.2
			c135.6,23.9,241.6,19.9,315-11.9c63.4-27.5,101.5-75.1,113.2-141.5c11.7-66.4-7.8-124.1-57.9-171.7c-58.1-55-156.3-95-291.9-119
			C1432.9,795.3,1364.1,789.1,1299.4,789.1z"/>
	</g>
	<g class="st0">
		
			<linearGradient id="SVGID_00000109710288859947353820000012647412056956826779_" gradientUnits="userSpaceOnUse" x1="933.3448" y1="936.7386" x2="1873.4775" y2="936.7386">
			<stop  offset="0" style="stop-color:#200E82"/>
			<stop  offset="4.858781e-02" style="stop-color:#2E0E7B"/>
			<stop  offset="0.1402" style="stop-color:#520E67"/>
			<stop  offset="0.265" style="stop-color:#8D0E47"/>
			<stop  offset="0.4168" style="stop-color:#DE0F1B"/>
			<stop  offset="0.4669" style="stop-color:#FA0F0C"/>
			<stop  offset="1" style="stop-color:#200E82"/>
		</linearGradient>
		<path style="fill:url(#SVGID_00000109710288859947353820000012647412056956826779_);" d="M1471.7,1169
			c-143.3,0-278.2-23.9-379.6-67.3c-49.5-21.2-88.5-45.9-115.7-73.5c-28.5-28.9-43-59.6-43-91.5c0-31.8,14.5-62.6,43-91.5
			c27.3-27.6,66.2-52.3,115.7-73.5c101.5-43.4,236.3-67.3,379.6-67.3c139.1,0,244,22.7,311.9,67.6c30.6,20.2,53.8,45.1,68.8,74
			c14,26.8,21.1,57.3,21.1,90.6c0,33.3-7.1,63.8-21.1,90.6c-15,28.9-38.2,53.8-68.8,74C1715.7,1146.2,1610.8,1169,1471.7,1169z
			 M1471.7,711.3c-142.4,0-276.3,23.7-376.9,66.8c-48.7,20.8-86.9,45.1-113.6,72c-27.2,27.6-41.1,56.7-41.1,86.7
			s13.8,59.1,41.1,86.7c26.6,26.9,64.8,51.2,113.6,72c100.6,43,234.5,66.8,376.9,66.8c137.7,0,241.4-22.4,308.1-66.5
			c57.6-38.1,86.9-91.6,86.9-159s-29.2-120.9-86.9-159C1713.1,733.7,1609.4,711.3,1471.7,711.3z"/>
	</g>
	<g class="st0">
		
			<linearGradient id="SVGID_00000087383528753205523010000012475974645519875738_" gradientUnits="userSpaceOnUse" x1="931.8087" y1="845.4053" x2="1862.605" y2="845.4053">
			<stop  offset="0" style="stop-color:#200E82"/>
			<stop  offset="4.858781e-02" style="stop-color:#2E0E7B"/>
			<stop  offset="0.1402" style="stop-color:#520E67"/>
			<stop  offset="0.265" style="stop-color:#8D0E47"/>
			<stop  offset="0.4168" style="stop-color:#DE0F1B"/>
			<stop  offset="0.4669" style="stop-color:#FA0F0C"/>
			<stop  offset="1" style="stop-color:#200E82"/>
		</linearGradient>
		<path style="fill:url(#SVGID_00000087383528753205523010000012475974645519875738_);" d="M1299.4,1091.1
			c-65.7,0-127.1-6.3-181.1-18.9c-52.5-12.3-95.1-29.8-126.7-52.3c-33.1-23.5-52.7-51.3-58.2-82.6c-5.5-31.3,3.4-64.2,26.5-97.5
			c22.1-31.9,56.1-63,101.2-92.5c92.4-60.4,221-107.3,362.2-132.2c137-24.1,244.2-20,318.9,12.4c33.7,14.6,60.8,35.1,80.6,60.9
			c18.4,24,30.7,52.8,36.5,85.6c5.8,32.8,4.1,64.1-5,92.9c-9.8,31-28.3,59.6-54.9,84.8c-59,56-158.4,96.6-295.4,120.7
			C1433.7,1084.9,1364.5,1091.1,1299.4,1091.1z M1582.2,606.5c-47,0-99.6,5.1-157.7,15.4c-140.3,24.7-268,71.3-359.6,131.2
			c-44.4,29-77.8,59.5-99.3,90.6c-22,31.9-30.6,63-25.4,92.5c5.2,29.5,23.9,55.8,55.5,78.2c30.9,21.9,72.7,39.1,124.3,51.2
			c106.6,24.9,242.5,25,382.8,0.3l0.6,3.3l-0.6-3.3c135.6-23.9,233.8-63.9,291.9-119c50.2-47.5,69.6-105.3,57.9-171.7
			c-11.7-66.4-49.8-114-113.2-141.5C1697.5,615.6,1644.9,606.5,1582.2,606.5z"/>
	</g>
	<g class="st0">
		
			<linearGradient id="SVGID_00000028291126571476128690000009387776496407384725_" gradientUnits="userSpaceOnUse" x1="927.1817" y1="761.9377" x2="1829.702" y2="761.9377">
			<stop  offset="0" style="stop-color:#200E82"/>
			<stop  offset="4.858781e-02" style="stop-color:#2E0E7B"/>
			<stop  offset="0.1402" style="stop-color:#520E67"/>
			<stop  offset="0.265" style="stop-color:#8D0E47"/>
			<stop  offset="0.4168" style="stop-color:#DE0F1B"/>
			<stop  offset="0.4669" style="stop-color:#FA0F0C"/>
			<stop  offset="1" style="stop-color:#200E82"/>
		</linearGradient>
		<path style="fill:url(#SVGID_00000028291126571476128690000009387776496407384725_);" d="M1174,1039.5c-11.9,0-23.5-0.3-34.8-0.9
			c-53.8-3-98.8-12.9-133.9-29.5c-36.7-17.4-60.8-41.3-71.7-71.2c-10.9-29.9-7.8-63.8,9.1-100.7c16.2-35.2,44.3-71.8,83.6-108.6
			c80.5-75.5,199-144,333.7-193.1c130.7-47.6,237.1-62.1,316.2-43.1c35.7,8.5,66,24,90,46c22.3,20.4,39.4,46.7,50.8,78
			c11.4,31.3,15.2,62.4,11.2,92.4c-4.3,32.3-17.5,63.6-39.4,93.1c-48.4,65.4-139.2,122.6-269.9,170.2
			C1398.1,1016,1277.1,1039.5,1174,1039.5z M1602.3,491.1c-66.7,0-147.1,17-240,50.8c-133.9,48.7-251.5,116.8-331.4,191.6
			c-38.7,36.3-66.3,72.1-82.1,106.5c-16.2,35.2-19.2,67.3-8.9,95.5c10.2,28.2,33.2,50.8,68.2,67.4c34.2,16.2,78.4,25.9,131.3,28.8
			c109.3,6,243.2-17.5,377-66.2l1.2,3.2l-1.2-3.2c129.4-47.1,219.2-103.6,266.8-167.8c41.1-55.5,50.3-115.8,27.3-179.1
			c-23.1-63.3-68.8-103.6-136-119.7C1652.7,493.7,1628.5,491.1,1602.3,491.1z"/>
	</g>
	<g class="st0">
		
			<linearGradient id="SVGID_00000069394565796706685960000010362851508762367890_" gradientUnits="userSpaceOnUse" x1="919.281" y1="687.9292" x2="1775.2061" y2="687.9292">
			<stop  offset="0" style="stop-color:#200E82"/>
			<stop  offset="4.858781e-02" style="stop-color:#2E0E7B"/>
			<stop  offset="0.1402" style="stop-color:#520E67"/>
			<stop  offset="0.265" style="stop-color:#8D0E47"/>
			<stop  offset="0.4168" style="stop-color:#DE0F1B"/>
			<stop  offset="0.4669" style="stop-color:#FA0F0C"/>
			<stop  offset="1" style="stop-color:#200E82"/>
		</linearGradient>
		<path style="fill:url(#SVGID_00000069394565796706685960000010362851508762367890_);" d="M1095.4,1005.6
			c-29.3,0-55.6-3.2-78.6-9.5c-39.2-10.7-67.1-30.1-83-57.7c-15.9-27.6-18.8-61.4-8.5-100.7c9.8-37.5,31.2-78.4,63.5-121.5
			c66.2-88.3,171-176.4,295.1-248.1c120.4-69.5,222.7-102.3,303.9-97.4c36.7,2.2,69.2,12.2,96.6,29.7c25.5,16.3,46.9,39.1,63.6,68
			c16.6,28.8,25.8,58.8,27.1,89c1.4,32.5-6.2,65.6-22.6,98.5c-36.3,72.8-115.8,144.9-236.3,214.5
			c-124.1,71.7-252.8,118.4-362.4,131.5C1133.2,1004.4,1113.7,1005.6,1095.4,1005.6z M1571.6,377c-77.2,0-172.7,32.6-284.3,97
			c-123.4,71.2-227.4,158.7-293.1,246.3c-31.8,42.4-52.8,82.5-62.4,119.1c-9.8,37.5-7.2,69.7,7.8,95.6c15,26,41.5,44.3,78.9,54.5
			c36.5,10,81.7,11.9,134.4,5.6c108.7-13,236.5-59.4,359.8-130.7l1.7,2.9l-1.7-2.9c119.3-68.9,197.9-140.1,233.6-211.6
			c30.9-61.8,29.4-122.7-4.3-181.1c-33.7-58.4-85.8-90.1-154.7-94.2C1582.2,377.2,1576.9,377,1571.6,377z"/>
	</g>
	<g class="st0">
		
			<linearGradient id="SVGID_00000091731393157053194780000002137445020970059947_" gradientUnits="userSpaceOnUse" x1="907.6201" y1="623.5241" x2="1700.6671" y2="623.5241">
			<stop  offset="0" style="stop-color:#200E82"/>
			<stop  offset="4.858781e-02" style="stop-color:#2E0E7B"/>
			<stop  offset="0.1402" style="stop-color:#520E67"/>
			<stop  offset="0.265" style="stop-color:#8D0E47"/>
			<stop  offset="0.4168" style="stop-color:#DE0F1B"/>
			<stop  offset="0.4669" style="stop-color:#FA0F0C"/>
			<stop  offset="1" style="stop-color:#200E82"/>
		</linearGradient>
		<path style="fill:url(#SVGID_00000091731393157053194780000002137445020970059947_);" d="M1048.1,982.3c-7.7,0-15.1-0.3-22.3-1
			c-40.4-3.8-71.3-18-91.7-42.4c-20.5-24.4-29.1-57.3-25.8-97.7c3.2-38.6,17.1-82.6,41.4-130.7c49.8-98.5,137.7-203.4,247.5-295.6
			c106.5-89.4,201.5-139.4,282.3-148.7c36.5-4.2,70.2,0,100.3,12.4c28,11.6,53,30.4,74.4,55.9c21.4,25.5,35.6,53.4,42.1,83
			c7,31.8,5.3,65.7-5.2,100.9c-23.2,78-88.9,162.8-195.5,252.2l-2.2-2.6l2.2,2.6c-109.8,92.1-228.4,160.5-334.1,192.5
			C1119.8,975.9,1081.7,982.3,1048.1,982.3z M1506.8,271.5c-8.6,0-17.4,0.5-26.4,1.5c-79.5,9.1-173.3,58.6-278.7,147.1
			c-109.1,91.6-196.4,195.8-245.8,293.4c-23.9,47.3-37.6,90.4-40.7,128.2c-3.2,38.6,5,69.8,24.3,92.8c19.3,23,48.6,36.4,87.2,40
			c37.7,3.5,82.6-2.5,133.3-17.8c104.8-31.7,222.5-99.6,331.7-191.2c105.5-88.5,170.5-172.3,193.3-249c19.7-66.2,7.7-126-35.6-177.6
			C1611.5,294.1,1563.7,271.5,1506.8,271.5z"/>
	</g>
	<g class="st0">
		
			<linearGradient id="SVGID_00000041283924824657093940000010551593709118953117_" gradientUnits="userSpaceOnUse" x1="891.1461" y1="569.3342" x2="1608.7601" y2="569.3342">
			<stop  offset="0" style="stop-color:#200E82"/>
			<stop  offset="4.858781e-02" style="stop-color:#2E0E7B"/>
			<stop  offset="0.1402" style="stop-color:#520E67"/>
			<stop  offset="0.265" style="stop-color:#8D0E47"/>
			<stop  offset="0.4168" style="stop-color:#DE0F1B"/>
			<stop  offset="0.4669" style="stop-color:#FA0F0C"/>
			<stop  offset="1" style="stop-color:#200E82"/>
		</linearGradient>
		<path style="fill:url(#SVGID_00000041283924824657093940000010551593709118953117_);" d="M1015.9,965.9
			c-33.1,0-60.4-8.9-81.4-26.5c-24.4-20.5-38.6-51.3-42.4-91.7c-3.6-38.6,2.5-84.3,18.1-135.9c32-105.6,100.3-224.3,192.5-334.1
			c89.4-106.5,174.3-172.3,252.2-195.5c35.2-10.5,69.2-12.2,100.9-5.2c29.6,6.5,57.5,20.7,83,42.1c25.5,21.4,44.3,46.4,55.9,74.4
			c12.4,30.1,16.6,63.8,12.4,100.3c-9.3,80.8-59.3,175.8-148.7,282.3c-92.1,109.8-197.1,197.7-295.6,247.5
			c-48.1,24.3-92,38.3-130.7,41.4C1026.7,965.6,1021.2,965.9,1015.9,965.9z M1416.8,179.5c-19.3,0-39.3,3.1-59.9,9.2
			c-76.7,22.8-160.4,87.8-249,193.3c-91.6,109.1-159.5,226.9-191.2,331.7c-15.4,50.7-21.4,95.6-17.8,133.3
			c3.6,38.6,17.1,67.9,40,87.2c23,19.3,54.2,27.4,92.8,24.3c37.8-3.1,80.9-16.8,128.2-40.7c97.7-49.4,201.9-136.7,293.4-245.8
			c88.5-105.5,138-199.3,147.1-278.7c7.9-68.6-14.3-125.4-65.9-168.7C1498.9,194.5,1459.5,179.5,1416.8,179.5z"/>
	</g>
	<g class="st0">
		
			<linearGradient id="SVGID_00000088844981125642041680000008657460708255773879_" gradientUnits="userSpaceOnUse" x1="867.8812" y1="526.2338" x2="1503.2155" y2="526.2338">
			<stop  offset="0" style="stop-color:#200E82"/>
			<stop  offset="4.858781e-02" style="stop-color:#2E0E7B"/>
			<stop  offset="0.1402" style="stop-color:#520E67"/>
			<stop  offset="0.265" style="stop-color:#8D0E47"/>
			<stop  offset="0.4168" style="stop-color:#DE0F1B"/>
			<stop  offset="0.4669" style="stop-color:#FA0F0C"/>
			<stop  offset="1" style="stop-color:#200E82"/>
		</linearGradient>
		<path style="fill:url(#SVGID_00000088844981125642041680000008657460708255773879_);" d="M992.1,954.2c-21.2,0-40.3-4.8-57.1-14.5
			c-27.6-15.9-47-43.8-57.7-83c-10.2-37.4-12.2-83.5-5.8-137c13.1-109.6,59.9-238.3,131.5-362.4c69.5-120.4,141.7-199.9,214.5-236.3
			c32.9-16.4,66-24,98.5-22.6c30.2,1.3,60.2,10.4,89,27.1c28.8,16.6,51.7,38,68,63.6c17.5,27.4,27.5,60,29.7,96.6
			c4.9,81.2-27.9,183.4-97.4,303.9l-2.9-1.7l2.9,1.7c-71.7,124.1-159.8,228.9-248.1,295.1c-43.1,32.3-84,53.7-121.5,63.5
			C1020.4,952.2,1005.8,954.2,992.1,954.2z M1308.4,105c-29,0-58.3,7.4-87.8,22.1c-71.6,35.7-142.8,114.3-211.6,233.6
			c-71.2,123.4-117.6,251.1-130.7,359.8c-6.3,52.6-4.4,97.8,5.6,134.4c10.2,37.4,28.6,63.9,54.5,78.9c26,15,58.1,17.6,95.6,7.8
			c36.6-9.6,76.7-30.6,119.1-62.4c87.6-65.6,175.1-169.7,246.3-293.1c68.9-119.3,101.3-220.2,96.5-300.1
			c-4.2-69-35.9-121-94.2-154.7C1371.2,113.8,1340.1,105,1308.4,105z"/>
	</g>
	<g class="st0">
		
			<linearGradient id="SVGID_00000055690033515061573900000017842014091340671636_" gradientUnits="userSpaceOnUse" x1="833.9498" y1="495.0356" x2="1389.1294" y2="495.0356">
			<stop  offset="0" style="stop-color:#200E82"/>
			<stop  offset="4.858781e-02" style="stop-color:#2E0E7B"/>
			<stop  offset="0.1402" style="stop-color:#520E67"/>
			<stop  offset="0.265" style="stop-color:#8D0E47"/>
			<stop  offset="0.4168" style="stop-color:#DE0F1B"/>
			<stop  offset="0.4669" style="stop-color:#FA0F0C"/>
			<stop  offset="1" style="stop-color:#200E82"/>
		</linearGradient>
		<path style="fill:url(#SVGID_00000055690033515061573900000017842014091340671636_);" d="M972.3,946.3c-12.8,0-25.1-2.1-36.8-6.4
			c-29.9-10.9-53.9-35-71.2-71.7c-16.6-35-26.5-80.1-29.5-133.9c-6.1-110.2,17.6-245,66.6-379.7c47.6-130.7,104.8-221.5,170.2-269.9
			c29.5-21.9,60.8-35.1,93.1-39.4c30-4,61.1-0.2,92.4,11.2c31.3,11.4,57.5,28.5,78,50.8c22,24,37.4,54.3,46,90
			c18.9,79.1,4.4,185.5-43.1,316.2l-3.2-1.2l3.2,1.2c-49,134.7-117.6,253.2-193.1,333.7c-36.9,39.3-73.4,67.4-108.6,83.6
			C1013.7,941.1,992.4,946.3,972.3,946.3z M1188,50.5c-39.1,0-76.7,13.2-112.3,39.6c-64.3,47.6-120.7,137.4-167.8,266.8
			c-48.7,133.9-72.2,267.8-66.2,377c2.9,52.9,12.6,97.1,28.8,131.3c16.6,35,39.3,58,67.4,68.2c28.2,10.2,60.3,7.2,95.5-8.9
			c34.4-15.8,70.3-43.4,106.5-82.1c74.9-79.8,142.9-197.5,191.6-331.4c47.1-129.4,61.5-234.5,42.9-312.3
			c-16.1-67.2-56.3-113-119.7-136C1232.1,54.6,1209.8,50.5,1188,50.5z"/>
	</g>
	<g class="st0">
		
			<linearGradient id="SVGID_00000081642157105485403090000008890324069514181784_" gradientUnits="userSpaceOnUse" x1="782.3557" y1="476.2704" x2="1273.7888" y2="476.2704">
			<stop  offset="0" style="stop-color:#200E82"/>
			<stop  offset="4.858781e-02" style="stop-color:#2E0E7B"/>
			<stop  offset="0.1402" style="stop-color:#520E67"/>
			<stop  offset="0.265" style="stop-color:#8D0E47"/>
			<stop  offset="0.4168" style="stop-color:#DE0F1B"/>
			<stop  offset="0.4669" style="stop-color:#FA0F0C"/>
			<stop  offset="1" style="stop-color:#200E82"/>
		</linearGradient>
		<path style="fill:url(#SVGID_00000081642157105485403090000008890324069514181784_);" d="M954.3,941.7c-6.1,0-12.2-0.5-18.2-1.6
			c-31.3-5.5-59.1-25.1-82.6-58.2c-22.4-31.6-40-74.3-52.3-126.7c-25.1-107.4-25.2-244.4-0.4-385.5c24.1-137,64.8-236.3,120.7-295.4
			c25.3-26.7,53.8-45.1,84.8-54.9c28.9-9.1,60.1-10.8,92.9-5c32.8,5.8,61.6,18.1,85.6,36.5c25.8,19.8,46.3,46.9,60.9,80.6
			c32.4,74.6,36.6,181.9,12.4,318.9c-24.9,141.2-71.8,269.8-132.2,362.2c-29.5,45.1-60.6,79.2-92.5,101.2
			C1006.7,932.3,980.1,941.7,954.3,941.7z M1061.7,17.6c-51.2,0-96.6,20.5-135.2,61.2c-55,58.1-95,156.3-119,291.9
			C782.9,511,783,647,807.9,753.6c12.1,51.6,29.3,93.4,51.2,124.3c22.4,31.6,48.7,50.3,78.2,55.5c29.5,5.2,60.6-3.3,92.5-25.4
			c31.2-21.6,61.6-55,90.6-99.3c59.9-91.6,106.5-219.3,131.2-359.6l3.3,0.6l-3.3-0.6c23.9-135.6,19.9-241.6-11.9-315
			c-27.5-63.4-75.1-101.5-141.5-113.2C1085.8,18.7,1073.6,17.6,1061.7,17.6z"/>
	</g>
</g>
</svg>
